<?xml version="1.0" standalone="no"?>
<!DOCTYPE svg PUBLIC "-//W3C//DTD SVG 20010904//EN"
 "http://www.w3.org/TR/2001/REC-SVG-20010904/DTD/svg10.dtd">
<svg version="1.0" xmlns="http://www.w3.org/2000/svg"
 width="720.000000pt" height="720.000000pt" viewBox="0 0 720.000000 720.000000"
 preserveAspectRatio="xMidYMid meet">
<metadata>
Created by potrace 1.14, written by Peter Selinger 2001-2017
</metadata>
<g transform="translate(0.000000,720.000000) scale(0.100000,-0.100000)"
fill="#000000" stroke="none">
<path d="M3420 6550 c0 -30 -1 -30 -55 -30 -54 0 -55 0 -55 -29 0 -26 -4 -30
-32 -33 -27 -2 -34 -8 -36 -30 -3 -21 -9 -27 -30 -30 -21 -2 -28 -9 -30 -30
-3 -24 -8 -27 -63 -33 -57 -7 -59 -8 -59 -36 0 -26 -4 -29 -30 -29 -27 0 -30
-3 -30 -30 0 -27 -3 -30 -30 -30 -27 0 -30 -3 -30 -30 0 -28 -3 -30 -35 -30
-32 0 -35 -3 -35 -29 0 -27 -3 -29 -54 -35 -50 -7 -55 -10 -58 -34 -2 -22 -9
-28 -35 -30 -29 -3 -33 -7 -33 -33 0 -25 -4 -29 -29 -29 -25 0 -30 -4 -33 -27
-2 -23 -8 -29 -35 -31 -27 -3 -33 -8 -33 -27 0 -21 -6 -24 -55 -30 -52 -7 -55
-9 -55 -36 0 -26 -3 -29 -35 -29 -32 0 -35 -2 -35 -30 0 -27 -3 -30 -30 -30
-27 0 -30 -3 -30 -30 0 -27 -3 -30 -30 -30 -26 0 -30 -3 -30 -29 0 -28 -2 -29
-59 -36 -55 -6 -60 -9 -63 -33 -2 -22 -9 -28 -35 -30 -29 -3 -33 -7 -33 -33 0
-26 -3 -29 -30 -29 -27 0 -30 -3 -30 -30 0 -27 -3 -30 -30 -30 -27 0 -30 -3
-30 -30 l0 -30 -60 0 -60 0 0 -30 c0 -27 -3 -30 -30 -30 -27 0 -30 -3 -30 -29
0 -26 -4 -30 -32 -33 -27 -2 -34 -8 -36 -30 -3 -21 -9 -27 -30 -30 -21 -2 -28
-9 -30 -30 -3 -24 -8 -27 -63 -33 l-59 -7 0 -1164 0 -1164 29 0 c26 0 30 -4
33 -32 3 -33 4 -33 61 -36 56 -3 57 -4 57 -32 0 -28 3 -30 35 -30 32 0 35 -2
35 -30 l0 -30 60 0 c60 0 60 0 60 -29 0 -28 2 -29 60 -36 54 -6 60 -9 60 -30
0 -19 6 -24 33 -27 26 -2 33 -8 35 -30 3 -24 8 -27 63 -33 57 -7 59 -8 59 -36
0 -29 0 -29 60 -29 l60 0 0 -30 c0 -28 3 -30 35 -30 32 0 35 -2 35 -30 0 -28
1 -29 58 -32 53 -3 57 -5 60 -30 3 -24 8 -27 63 -33 54 -6 59 -9 59 -31 0 -20
5 -24 30 -24 26 0 30 -3 30 -29 0 -28 2 -29 59 -36 55 -6 60 -9 63 -33 3 -25
7 -27 61 -30 56 -3 57 -4 57 -32 0 -28 3 -30 35 -30 32 0 35 -2 35 -30 l0 -30
65 0 65 0 0 30 c0 27 3 30 30 30 29 0 30 1 30 49 0 26 -3 69 -6 95 -6 43 -9
46 -35 46 -26 0 -29 4 -29 30 l0 30 -60 0 -60 0 0 30 c0 28 -3 30 -35 30 -32
0 -35 2 -35 30 0 27 -3 30 -30 30 -27 0 -30 3 -30 30 0 25 -4 30 -25 30 l-25
0 0 324 c0 178 -3 344 -6 370 -6 43 -9 46 -35 46 -26 0 -29 4 -29 30 l0 30
-60 0 c-59 0 -60 0 -60 29 0 27 -2 29 -60 35 -54 6 -60 9 -60 31 0 21 -6 24
-59 30 -55 6 -60 9 -63 33 -2 22 -9 28 -35 30 -29 3 -33 7 -33 33 l0 29 -89 0
-89 0 -7 -60 c-6 -55 -9 -60 -31 -60 l-24 0 -2 -247 -3 -248 -30 0 c-25 0 -31
4 -33 27 -3 24 -8 27 -63 33 -57 7 -59 8 -59 36 0 26 -4 29 -30 29 -27 0 -30
3 -30 30 0 27 -3 30 -30 30 l-30 0 0 430 0 430 60 0 60 0 0 -30 0 -30 60 0
c59 0 60 0 60 -29 0 -27 2 -29 60 -35 55 -6 60 -9 60 -31 0 -19 6 -24 33 -27
26 -2 33 -8 35 -30 3 -24 8 -27 63 -33 57 -7 59 -8 59 -36 0 -29 0 -29 60 -29
l60 0 0 -30 0 -30 60 0 60 0 0 -30 c0 -28 3 -30 35 -30 32 0 35 -3 35 -29 0
-28 2 -29 60 -36 54 -6 60 -9 60 -30 0 -19 6 -24 33 -27 26 -2 33 -8 35 -30 3
-24 8 -27 63 -33 53 -6 59 -9 59 -30 0 -22 6 -25 60 -31 58 -6 60 -8 60 -35 0
-29 1 -29 60 -29 60 0 60 0 60 -29 0 -26 4 -30 33 -33 27 -2 33 -8 35 -30 3
-24 8 -28 33 -28 l29 0 0 -1080 0 -1080 24 0 c19 0 25 -6 28 -27 2 -22 9 -29
31 -31 23 -3 27 -8 27 -33 0 -27 3 -29 35 -29 32 0 35 2 35 30 0 27 3 30 30
30 27 0 30 3 30 30 0 27 3 30 30 30 l30 0 0 465 0 465 29 0 c25 0 30 4 33 27
2 23 8 29 36 31 28 3 32 7 32 33 0 29 0 29 60 29 l60 0 0 30 0 30 60 0 c60 0
60 0 60 29 0 28 2 29 59 36 55 6 60 9 63 33 2 22 9 28 36 30 26 3 32 8 32 27
0 21 6 24 60 30 58 7 60 8 60 36 0 26 3 29 35 29 30 0 35 3 35 25 0 22 5 25
60 31 58 6 60 8 60 35 0 29 1 29 60 29 60 0 60 0 60 29 0 28 2 29 60 36 54 6
60 9 60 30 0 19 6 24 33 27 26 2 33 8 35 30 3 24 8 27 63 33 53 6 59 9 59 30
0 22 6 25 60 31 58 6 60 8 60 35 0 26 4 29 30 29 27 0 30 3 30 30 l0 30 60 0
c59 0 60 0 60 29 0 27 2 29 59 35 56 6 60 9 63 34 2 21 9 28 29 30 22 3 28 9
33 40 3 20 6 531 6 1135 l0 1097 -29 0 c-26 0 -30 4 -33 33 -2 26 -8 33 -30
35 -21 3 -27 9 -30 30 -2 22 -9 28 -35 30 -27 3 -33 8 -33 27 0 18 -6 24 -27
27 -23 2 -29 8 -31 36 -3 28 -7 32 -33 32 -24 0 -29 4 -29 24 0 22 -5 25 -60
31 -58 7 -60 8 -60 36 0 26 -4 29 -30 29 -27 0 -30 3 -30 30 0 28 -3 30 -35
30 -32 0 -35 2 -35 30 0 27 -3 30 -30 30 -26 0 -30 3 -30 29 0 28 -2 29 -60
36 -58 7 -60 8 -60 36 0 26 -4 29 -30 29 -27 0 -30 3 -30 30 0 28 -3 30 -35
30 -32 0 -35 2 -35 30 0 27 -3 30 -30 30 -27 0 -30 3 -30 30 0 28 -1 29 -57
32 -55 3 -58 4 -61 31 -3 23 -8 27 -33 27 -26 0 -29 3 -29 30 0 27 -3 30 -30
30 -26 0 -30 3 -30 29 0 28 -2 29 -60 36 -58 7 -60 8 -60 36 0 25 -4 29 -29
29 -25 0 -30 4 -33 28 -2 22 -8 28 -35 30 -29 3 -33 7 -33 33 0 26 -3 29 -30
29 -26 0 -30 3 -30 29 0 27 -2 29 -59 35 -56 6 -60 9 -63 34 -2 21 -9 28 -30
30 -21 3 -27 9 -30 30 -2 22 -9 28 -35 30 -27 3 -33 8 -33 27 0 18 -6 24 -27
27 -23 2 -29 8 -31 36 l-3 32 -60 0 c-59 0 -59 0 -59 30 0 28 -3 30 -35 30
-32 0 -35 -2 -35 -30z m84 -336 c42 -6 46 -9 46 -35 0 -24 4 -28 33 -31 26 -2
33 -8 35 -29 3 -24 8 -27 57 -34 49 -6 54 -9 57 -33 2 -22 9 -28 36 -30 28 -3
32 -7 32 -33 0 -26 3 -29 30 -29 27 0 30 -3 30 -30 0 -27 3 -30 29 -30 25 0
30 -4 33 -27 3 -27 6 -28 61 -31 56 -3 57 -4 57 -32 0 -27 3 -30 30 -30 27 0
30 -3 30 -30 0 -28 3 -30 35 -30 32 0 35 -3 35 -29 0 -28 2 -29 60 -36 l60 -7
0 -59 c0 -59 0 -59 -30 -59 -27 0 -30 -3 -30 -30 0 -28 -3 -30 -35 -30 -32 0
-35 -2 -35 -30 l0 -30 -60 0 c-60 0 -60 0 -60 -30 0 -28 -1 -29 -57 -32 -55
-3 -58 -4 -61 -30 -3 -24 -8 -28 -33 -28 -25 0 -29 -4 -29 -29 0 -27 -2 -29
-60 -35 -54 -6 -60 -9 -60 -31 0 -21 -6 -24 -59 -30 -55 -6 -60 -9 -63 -33 -2
-22 -9 -28 -35 -30 -29 -3 -33 -7 -33 -33 l0 -29 -90 0 -90 0 0 29 c0 27 -2
29 -59 35 -56 6 -60 9 -63 34 -2 22 -9 28 -35 30 -27 3 -33 8 -33 27 0 21 -6
24 -60 30 -58 7 -60 8 -60 36 0 26 -3 29 -35 29 -32 0 -35 2 -35 30 l0 30 -60
0 -60 0 0 30 0 30 -60 0 -60 0 0 30 c0 27 -3 30 -30 30 -27 0 -30 3 -30 30 0
27 -3 30 -30 30 -30 0 -30 0 -30 59 l0 59 60 7 c58 7 60 8 60 36 0 26 4 29 30
29 27 0 30 3 30 30 0 28 3 30 35 30 32 0 35 3 35 29 0 27 3 29 55 36 49 6 55
9 55 30 0 19 6 24 33 27 28 3 32 7 35 36 3 28 7 32 33 32 24 0 29 4 29 24 0
21 6 25 33 28 26 2 33 8 35 30 3 24 8 27 58 34 51 6 54 8 54 35 0 26 3 29 35
29 32 0 35 2 35 29 0 26 4 30 33 34 17 2 37 5 43 5 6 1 32 -1 58 -4z m-1041
-870 c30 -5 37 -11 37 -30 0 -18 6 -23 33 -26 26 -2 33 -8 35 -30 3 -24 8 -27
63 -33 57 -7 59 -8 59 -36 0 -26 4 -29 30 -29 25 0 30 -4 30 -24 0 -22 5 -25
59 -31 55 -6 60 -9 63 -33 3 -25 7 -27 61 -30 56 -3 57 -4 57 -32 0 -28 3 -30
35 -30 32 0 35 -3 35 -29 0 -28 2 -29 60 -36 54 -6 60 -9 60 -30 0 -19 6 -24
33 -27 26 -2 33 -8 35 -30 3 -21 9 -27 30 -30 l27 -3 3 -277 2 -278 -65 0 -65
0 0 30 0 30 -60 0 c-60 0 -60 0 -60 29 0 28 -2 29 -59 36 -55 6 -60 9 -63 33
-2 22 -9 28 -35 30 -27 3 -33 8 -33 27 0 21 -6 24 -60 30 -58 7 -60 8 -60 36
0 29 0 29 -60 29 l-60 0 0 30 c0 28 -3 30 -35 30 -32 0 -35 2 -35 30 l0 30
-60 0 -60 0 0 30 0 30 -60 0 c-60 0 -60 0 -60 29 0 28 -2 29 -59 36 -55 6 -60
9 -63 33 -2 22 -9 28 -35 30 -27 3 -33 8 -33 27 0 22 -5 25 -60 31 -58 6 -60
8 -60 35 0 26 -4 29 -30 29 -30 0 -30 0 -30 59 l0 59 59 7 c55 6 60 9 63 33 2
21 9 28 30 30 21 3 27 9 30 30 2 22 9 28 36 30 28 3 32 7 32 33 0 26 3 29 30
29 27 0 30 3 30 30 l0 30 83 0 c45 0 99 -3 120 -6z m2197 -24 c0 -27 3 -30 30
-30 27 0 30 -3 30 -30 0 -27 3 -30 30 -30 27 0 30 -3 30 -29 0 -26 4 -30 33
-33 26 -2 33 -8 35 -30 3 -25 7 -28 63 -34 l59 -7 0 -58 c0 -59 0 -59 -30 -59
-26 0 -30 -3 -30 -29 0 -28 -2 -29 -65 -36 -60 -6 -65 -8 -65 -31 0 -20 -5
-24 -30 -24 -26 0 -30 -3 -30 -29 0 -28 -2 -29 -60 -36 -54 -6 -60 -9 -60 -30
0 -21 -6 -24 -59 -30 -55 -6 -60 -9 -63 -33 -3 -25 -7 -27 -60 -30 -57 -3 -58
-4 -58 -32 0 -28 -3 -30 -35 -30 -32 0 -35 -2 -35 -30 l0 -30 -60 0 c-59 0
-60 0 -60 -29 0 -27 -2 -29 -60 -35 -54 -6 -60 -9 -60 -31 0 -21 -6 -24 -59
-30 -55 -6 -60 -9 -63 -33 -2 -22 -9 -28 -35 -30 -27 -3 -33 -8 -33 -27 0 -21
-6 -24 -60 -30 -58 -7 -60 -8 -60 -36 l0 -29 -65 0 -65 0 0 280 0 280 29 0
c25 0 30 4 33 28 2 22 8 28 36 30 28 3 32 7 32 33 0 29 0 29 60 29 l60 0 0 30
c0 27 3 30 30 30 27 0 30 3 30 30 l0 30 60 0 c59 0 60 0 60 29 0 27 2 29 60
35 55 6 60 9 60 31 0 19 6 24 33 27 26 2 33 8 35 30 3 24 8 27 63 33 57 7 59
8 59 36 0 26 3 29 35 29 30 0 35 3 35 24 0 29 13 32 148 35 l92 1 0 -30z
m-2770 -614 c0 -22 5 -25 60 -31 58 -7 60 -8 60 -36 0 -29 0 -29 60 -29 l60 0
0 -30 c0 -28 3 -30 35 -30 32 0 35 -3 35 -29 0 -28 2 -29 60 -36 54 -6 60 -9
60 -30 0 -21 6 -24 59 -30 55 -6 60 -9 63 -33 3 -25 7 -27 60 -30 53 -3 57 -5
60 -30 2 -22 9 -28 36 -30 28 -3 32 -7 32 -33 0 -29 0 -29 60 -29 59 0 60 0
60 -29 0 -27 2 -29 60 -35 55 -6 60 -9 60 -31 0 -22 5 -25 35 -25 32 0 35 -2
35 -30 0 -28 1 -29 58 -32 53 -3 57 -5 60 -30 3 -24 8 -27 63 -33 57 -7 59 -8
59 -36 0 -26 3 -29 35 -29 30 0 35 -3 35 -24 0 -19 6 -25 28 -28 l27 -3 3
-245 c2 -135 0 -273 -3 -307 -6 -58 -9 -63 -30 -63 -18 0 -24 6 -27 28 -2 22
-8 28 -35 30 -27 3 -33 8 -33 27 0 21 -6 24 -60 30 -58 7 -60 8 -60 36 0 29 0
29 -60 29 l-60 0 0 30 c0 28 -3 30 -35 30 -32 0 -35 2 -35 30 0 28 -1 29 -57
32 -54 3 -58 5 -61 30 -3 24 -8 27 -63 33 -53 6 -59 9 -59 30 0 19 -6 24 -32
27 -27 2 -34 8 -36 30 -3 25 -7 28 -63 34 -57 6 -59 8 -59 35 0 29 -1 29 -60
29 -59 0 -60 0 -60 29 0 27 -2 29 -60 35 -55 6 -60 9 -60 31 0 19 -6 24 -32
27 -27 2 -34 8 -36 30 -3 24 -8 27 -63 33 -53 6 -59 9 -59 30 0 22 -6 25 -60
31 -58 6 -60 8 -60 35 0 26 -4 29 -30 29 -27 0 -30 3 -30 30 0 27 -3 30 -30
30 l-30 0 0 275 0 275 60 0 c57 0 60 -1 60 -24z m3260 -36 c0 -57 -1 -60 -25
-60 l-25 0 0 -150 0 -150 25 0 c24 0 25 -2 25 -65 l0 -65 -30 0 c-27 0 -30 -3
-30 -29 0 -26 -4 -30 -32 -33 -27 -2 -34 -8 -36 -30 -3 -25 -7 -27 -60 -30
-54 -3 -57 -5 -60 -30 -3 -25 -7 -28 -63 -34 -57 -6 -59 -8 -59 -35 0 -26 -4
-29 -30 -29 -25 0 -30 -4 -30 -24 0 -22 -5 -25 -60 -31 -58 -7 -60 -8 -60 -36
0 -29 0 -29 -60 -29 -59 0 -60 0 -60 -29 0 -27 -2 -29 -60 -35 -55 -6 -60 -9
-60 -31 0 -22 -5 -25 -35 -25 -32 0 -35 -3 -35 -29 0 -28 -2 -29 -60 -36 -54
-6 -60 -9 -60 -30 0 -21 -6 -24 -60 -30 -58 -7 -60 -8 -60 -36 0 -26 -3 -29
-35 -29 -32 0 -35 -2 -35 -30 l0 -30 -60 0 -60 0 0 -30 0 -30 -60 0 c-60 0
-60 0 -60 -29 0 -26 -4 -30 -32 -33 -28 -2 -34 -8 -36 -30 -3 -24 -8 -28 -33
-28 l-29 0 0 289 c0 158 3 309 6 334 l7 46 56 3 c52 3 56 5 59 30 3 24 8 27
63 33 57 7 59 8 59 36 0 29 0 29 60 29 l60 0 0 30 c0 28 3 30 35 30 32 0 35 2
35 30 l0 30 60 0 60 0 0 30 0 30 60 0 60 0 0 30 c0 27 3 30 30 30 27 0 30 3
30 30 0 29 1 29 63 32 59 3 62 4 65 30 3 25 7 28 63 34 57 6 59 8 59 35 0 29
1 29 60 29 l60 0 0 30 c0 27 3 30 30 30 27 0 30 3 30 30 l0 30 60 0 60 0 0 30
c0 28 3 30 35 30 32 0 35 2 35 30 l0 30 90 0 90 0 0 -60z m0 -925 l0 -65 -30
0 -30 0 0 -305 0 -305 30 0 30 0 0 -60 0 -60 -30 0 c-27 0 -30 -3 -30 -30 0
-27 -3 -30 -30 -30 -26 0 -30 -3 -30 -29 0 -28 -2 -29 -59 -36 -55 -6 -60 -9
-63 -33 -2 -23 -8 -27 -33 -27 l-30 0 -3 248 -2 247 -24 0 c-22 0 -25 5 -31
54 l-7 54 -45 6 c-25 3 -65 6 -89 6 -42 0 -44 -1 -44 -30 0 -28 -3 -30 -35
-30 -32 0 -35 -3 -35 -29 0 -28 -2 -29 -60 -36 -54 -6 -60 -9 -60 -30 0 -21
-6 -24 -60 -30 -58 -7 -60 -8 -60 -36 0 -29 0 -29 -60 -29 l-60 0 0 -30 c0
-27 -3 -30 -29 -30 -26 0 -30 -4 -33 -32 -2 -28 -8 -34 -30 -36 l-28 -3 0
-300 0 -299 28 -1 27 -2 -27 -4 c-25 -4 -27 -8 -30 -61 -3 -56 -3 -57 -35 -60
-29 -3 -33 -7 -33 -33 0 -29 0 -29 -60 -29 -59 0 -60 0 -60 -29 0 -27 -2 -29
-59 -35 -56 -6 -60 -9 -63 -34 -2 -22 -9 -28 -35 -30 -27 -3 -33 -7 -33 -28 0
-20 -5 -24 -30 -24 l-30 0 0 460 0 460 30 0 c27 0 30 3 30 30 0 28 3 30 35 30
32 0 35 2 35 30 l0 30 60 0 c60 0 60 0 60 29 0 28 2 29 60 36 54 6 60 9 60 30
0 21 6 24 59 30 55 6 60 9 63 33 2 22 9 28 36 30 28 3 32 7 32 33 0 29 0 29
60 29 l60 0 0 30 c0 28 3 30 35 30 32 0 35 2 35 30 l0 30 60 0 c60 0 60 0 60
30 0 28 1 29 58 32 53 3 57 5 60 30 3 24 8 27 63 33 57 7 59 8 59 36 0 26 4
29 30 29 25 0 30 4 30 24 0 22 5 25 59 31 55 6 60 9 63 33 2 22 9 28 36 30 28
3 32 7 32 33 l0 29 90 0 90 0 0 -65z m-2642 -827 c3 -21 9 -27 30 -30 l27 -3
3 -160 c2 -88 0 -184 -3 -212 -6 -48 -9 -53 -31 -53 -19 0 -24 5 -24 24 0 22
-5 25 -59 31 l-59 7 -6 45 c-3 25 -6 122 -6 215 l0 169 63 -3 c59 -3 62 -4 65
-30z m2032 -153 l0 -185 -30 0 c-26 0 -30 -3 -30 -29 0 -26 -3 -29 -46 -35
-92 -12 -84 -30 -84 184 l0 190 30 0 c27 0 30 3 30 30 l0 30 65 0 65 0 0 -185z"/>
</g>
</svg>
