<?xml version="1.0" standalone="no"?>
<!DOCTYPE svg PUBLIC "-//W3C//DTD SVG 20010904//EN"
 "http://www.w3.org/TR/2001/REC-SVG-20010904/DTD/svg10.dtd">
<svg version="1.0" xmlns="http://www.w3.org/2000/svg"
 width="960.000000pt" height="960.000000pt" viewBox="0 0 960.000000 960.000000"
 preserveAspectRatio="xMidYMid meet">
<metadata>
Created by potrace 1.14, written by Peter Selinger 2001-2017
</metadata>
<g transform="translate(0.000000,960.000000) scale(0.100000,-0.100000)"
fill="#000000" stroke="none">
<path d="M4717 9288 c-15 -5 -25 -14 -21 -19 3 -5 -1 -9 -9 -9 -8 0 -24 -9
-37 -20 -13 -11 -27 -20 -32 -20 -5 0 -7 -4 -3 -9 3 -5 -3 -12 -14 -16 -11 -3
-36 -21 -57 -40 -20 -19 -42 -31 -47 -28 -6 3 -7 1 -3 -5 4 -7 4 -12 -1 -12
-4 0 -21 -11 -37 -25 -16 -14 -33 -25 -38 -25 -5 0 -6 -4 -3 -10 6 -9 -8 -14
-27 -11 -5 0 -8 -6 -8 -14 0 -8 -4 -15 -10 -15 -10 0 -38 -21 -76 -58 -13 -13
-29 -20 -36 -16 -6 4 -9 3 -6 -2 3 -5 -3 -17 -14 -26 -10 -10 -18 -15 -18 -12
0 3 -9 -4 -20 -17 -10 -13 -19 -21 -20 -17 0 4 -10 -3 -23 -15 -37 -35 -87
-76 -87 -71 0 3 -13 -9 -29 -25 -16 -16 -32 -27 -35 -24 -3 4 -6 1 -6 -6 0 -7
-4 -9 -10 -6 -5 3 -10 -1 -10 -9 0 -9 -5 -16 -10 -16 -6 0 -23 -11 -38 -25
-15 -14 -32 -25 -39 -25 -7 0 -12 -3 -10 -7 1 -5 -1 -9 -5 -11 -4 -1 -19 -14
-34 -27 -15 -14 -31 -22 -37 -18 -5 3 -7 1 -4 -4 7 -11 -42 -49 -56 -45 -5 1
-6 -2 -2 -8 3 -5 2 -10 -2 -10 -5 0 -23 -13 -41 -29 -17 -17 -32 -27 -32 -23
0 3 -13 -8 -30 -26 -16 -18 -30 -30 -30 -27 0 4 -6 0 -13 -7 -8 -7 -29 -24
-47 -38 -18 -14 -38 -30 -44 -36 -6 -6 -30 -24 -53 -41 -23 -17 -39 -33 -36
-37 3 -3 -1 -6 -10 -6 -9 0 -17 -5 -17 -12 0 -6 -3 -9 -6 -5 -3 3 -17 -5 -31
-19 -13 -13 -29 -21 -35 -18 -6 4 -8 3 -5 -3 8 -12 -17 -36 -26 -26 -4 3 -7
-1 -7 -10 0 -9 -6 -17 -13 -17 -7 0 -20 -8 -28 -17 -9 -10 -27 -25 -40 -33
-13 -8 -35 -26 -49 -40 -44 -42 -65 -57 -55 -41 5 10 4 12 -3 7 -7 -4 -12 -14
-12 -22 0 -8 -4 -12 -10 -9 -5 3 -10 1 -10 -5 0 -6 -5 -8 -12 -4 -7 4 -8 3 -4
-4 4 -6 -4 -16 -16 -23 -12 -7 -28 -17 -35 -23 -7 -6 -27 -22 -44 -36 -18 -14
-40 -33 -51 -42 -10 -10 -18 -16 -18 -12 0 3 -11 -6 -24 -20 -13 -15 -26 -26
-30 -26 -6 0 -19 -10 -73 -60 -18 -16 -33 -27 -33 -25 0 3 -8 -3 -18 -12 -11
-10 -33 -29 -50 -43 -18 -14 -42 -33 -54 -42 -11 -10 -25 -18 -30 -18 -5 0 -6
-5 -2 -12 5 -8 2 -9 -10 -5 -10 4 -15 3 -11 -3 3 -6 2 -10 -3 -10 -4 0 -17 -8
-28 -17 -11 -10 -40 -34 -64 -53 -25 -19 -51 -39 -58 -45 -7 -5 -21 -18 -30
-27 -9 -10 -22 -18 -29 -18 -7 0 -13 -7 -13 -16 0 -8 -5 -12 -10 -9 -6 3 -13
-1 -16 -9 -3 -9 -11 -16 -16 -16 -6 0 -19 -10 -29 -22 -11 -11 -19 -18 -19
-14 0 4 -10 -2 -22 -14 -64 -57 -81 -69 -91 -63 -5 3 -7 2 -4 -4 6 -9 -26 -43
-41 -43 -4 0 -13 -9 -20 -20 -7 -12 -17 -18 -22 -15 -6 3 -10 -1 -10 -10 0 -9
-4 -14 -8 -11 -12 7 -134 -108 -125 -118 4 -4 0 -12 -10 -17 -16 -9 -17 -107
-17 -1740 0 -999 4 -1728 9 -1725 5 3 12 -1 15 -10 4 -10 2 -13 -7 -8 -6 5 2
-6 20 -24 17 -18 37 -32 43 -32 6 0 9 -4 6 -9 -3 -5 5 -12 19 -15 14 -4 25
-11 25 -17 0 -6 5 -7 10 -4 6 3 10 -1 10 -9 0 -9 3 -15 8 -14 15 4 52 -14 46
-23 -3 -5 -2 -9 3 -8 20 3 34 -2 28 -11 -4 -6 -3 -9 2 -8 13 3 53 -13 53 -22
0 -6 45 -24 45 -17 0 1 8 -5 17 -13 9 -8 13 -19 10 -24 -3 -5 -1 -7 4 -4 13 8
56 -10 50 -21 -4 -5 2 -8 11 -7 10 2 25 -5 33 -14 8 -9 25 -20 38 -24 12 -4
22 -12 22 -17 0 -6 4 -8 8 -5 5 3 19 -4 30 -15 12 -11 22 -16 22 -12 0 4 7 -3
16 -15 9 -13 22 -21 30 -18 8 3 14 1 14 -5 0 -6 7 -8 16 -5 8 3 12 2 9 -4 -3
-5 6 -12 20 -16 14 -3 22 -11 18 -17 -4 -6 0 -8 10 -4 9 3 18 0 21 -9 3 -8 12
-14 21 -14 8 0 15 -4 15 -10 0 -5 7 -10 15 -10 8 0 15 -5 15 -11 0 -5 4 -8 9
-5 5 3 14 -1 21 -9 7 -8 17 -15 22 -15 5 0 16 -7 25 -15 8 -8 19 -13 24 -10 5
4 9 2 9 -3 0 -5 11 -15 25 -22 13 -7 21 -18 18 -24 -4 -6 0 -5 9 2 13 10 18 8
33 -12 11 -14 24 -22 33 -18 10 3 13 1 8 -6 -4 -7 -1 -12 8 -12 9 0 16 -5 16
-11 0 -6 7 -9 15 -5 8 3 15 1 15 -4 0 -5 9 -12 20 -15 11 -4 18 -11 14 -16 -3
-5 -2 -9 3 -8 22 4 43 -2 38 -11 -3 -5 1 -10 9 -10 8 0 21 -6 28 -13 7 -7 15
-14 18 -14 21 -1 49 -16 45 -24 -4 -5 3 -9 14 -9 12 0 21 -4 21 -10 0 -5 7
-10 15 -10 8 0 15 -4 15 -10 0 -5 6 -10 13 -10 7 0 23 -9 34 -19 12 -11 24
-17 27 -14 3 4 6 1 6 -6 0 -7 5 -9 10 -6 6 3 10 1 10 -4 0 -6 9 -11 21 -11 12
0 23 -8 26 -19 3 -12 11 -17 19 -14 8 3 14 0 14 -7 0 -6 5 -8 10 -5 6 3 10 1
10 -4 0 -6 7 -11 15 -11 8 0 15 -4 15 -10 0 -5 10 -10 22 -10 12 0 18 -3 15
-6 -4 -4 15 -18 41 -32 26 -14 50 -30 54 -36 5 -6 8 -7 8 -1 0 6 6 3 13 -6 7
-8 27 -22 45 -30 17 -7 32 -17 32 -21 0 -5 9 -8 21 -8 11 0 18 -4 15 -8 -3 -5
10 -15 29 -22 19 -8 35 -17 35 -22 0 -4 7 -8 16 -8 9 0 12 -5 8 -12 -4 -7 -4
-10 1 -6 7 7 62 -18 75 -33 3 -3 26 -17 52 -31 26 -14 45 -28 41 -32 -3 -3 6
-6 20 -6 18 0 27 -5 27 -16 0 -8 4 -12 10 -9 5 3 17 -3 27 -15 10 -11 28 -20
41 -20 13 0 20 -4 17 -10 -3 -6 1 -10 9 -10 9 0 16 -5 16 -10 0 -6 6 -9 13 -8
6 2 11 -2 10 -7 -1 -10 12 -14 55 -17 6 -1 12 -4 12 -7 0 -4 16 -6 35 -7 19 0
35 4 35 10 0 6 5 4 10 -4 5 -8 10 -10 10 -4 0 7 7 15 16 18 10 4 13 2 8 -7 -8
-12 17 5 44 31 8 7 18 10 23 7 5 -4 6 2 2 11 -4 11 -2 15 4 11 8 -5 34 31 37
53 1 3 5 11 9 18 5 6 5 12 0 12 -4 0 -1 5 7 10 11 7 11 10 2 10 -10 0 -10 5
-2 20 6 11 7 20 2 20 -7 0 -11 15 -14 58 -1 6 -4 12 -7 12 -3 0 -12 14 -20 31
-7 16 -15 28 -18 25 -8 -8 -31 18 -25 28 3 5 0 6 -5 3 -6 -4 -16 0 -23 8 -7 8
-20 15 -30 15 -10 0 -21 7 -24 16 -3 9 -12 14 -19 11 -6 -2 -19 5 -29 15 -9
11 -25 20 -36 21 -12 0 -20 4 -19 7 1 3 -2 6 -6 7 -5 1 -17 11 -27 23 -13 15
-19 17 -23 8 -3 -8 -6 -6 -6 5 -1 10 -5 16 -10 13 -4 -3 -19 3 -31 14 -12 11
-27 17 -31 14 -5 -3 -9 2 -9 11 0 9 -4 14 -8 11 -12 -7 -63 29 -55 39 5 4 3 5
-3 2 -7 -4 -27 4 -45 16 -19 13 -42 26 -53 30 -14 5 -17 13 -12 33 5 19 4 24
-6 18 -10 -6 -9 -3 1 9 11 14 11 17 0 17 -9 0 -10 3 -4 8 12 8 12 73 0 92 -5
8 -4 11 2 7 5 -3 9 16 9 49 -1 29 -5 54 -11 54 -5 0 -4 4 4 9 13 8 13 12 0 27
-8 10 -9 15 -4 12 6 -4 10 31 10 97 0 66 -4 101 -10 97 -5 -3 -4 2 4 11 11 14
11 17 0 17 -9 0 -10 3 -4 8 12 8 12 73 0 92 -5 8 -4 11 2 7 5 -3 9 16 9 49 -1
29 -5 54 -11 54 -5 0 -4 4 4 9 13 8 13 12 0 27 -8 10 -9 15 -4 12 6 -4 10 44
10 137 0 90 -4 143 -10 142 -5 -1 -10 6 -10 16 0 10 -6 22 -13 26 -8 5 -14 12
-14 17 -1 13 -28 50 -28 39 0 -6 -5 -2 -11 8 -6 9 -14 15 -20 12 -5 -4 -12 1
-15 9 -3 9 -10 14 -14 11 -4 -3 -13 2 -20 10 -7 8 -19 15 -26 15 -8 0 -14 4
-14 8 0 5 -16 14 -35 22 -19 8 -35 17 -35 21 0 3 -13 12 -30 19 -16 7 -30 17
-30 22 0 5 -4 7 -9 3 -6 -3 -14 2 -19 11 -5 9 -12 15 -15 15 -20 -3 -28 0 -22
9 4 6 -1 7 -11 3 -11 -4 -15 -3 -10 5 4 7 -1 10 -14 7 -11 -2 -19 -1 -16 3 4
7 -25 38 -34 36 -11 -3 -70 30 -70 38 0 5 -4 6 -10 3 -5 -3 -10 -1 -10 4 0 6
-7 11 -16 11 -9 0 -12 5 -8 12 4 6 3 8 -4 4 -6 -3 -17 0 -25 8 -8 8 -17 12
-21 9 -3 -4 -6 -1 -6 5 0 9 -13 17 -45 24 -10 2 -35 21 -61 46 -8 7 -14 10
-14 6 0 -3 -7 -1 -15 6 -8 7 -15 9 -15 5 0 -5 -8 1 -18 11 -9 10 -24 20 -32
22 -8 2 -18 9 -22 15 -5 8 -8 7 -8 -3 0 -13 -1 -13 -10 0 -5 8 -10 11 -10 7 0
-4 -10 -3 -21 4 -15 8 -19 8 -15 0 9 -14 0 -14 -27 1 -19 10 -20 9 -10 -4 11
-12 9 -14 -10 -13 -12 1 -28 -3 -36 -9 -12 -9 -13 -8 -7 4 6 12 5 12 -6 -1 -7
-8 -25 -24 -40 -33 -15 -10 -26 -22 -23 -26 3 -5 -3 -13 -12 -19 -10 -5 -17
-12 -15 -15 5 -13 2 -27 -5 -23 -5 3 -8 -25 -7 -61 0 -37 -5 -73 -10 -81 -8
-11 -8 -13 0 -8 8 4 11 -3 10 -23 0 -17 -5 -30 -11 -30 -5 0 -4 -4 3 -9 14 -9
13 -32 -3 -43 -6 -5 -6 -8 2 -8 14 0 13 -40 -2 -40 -6 0 -7 -3 0 -8 15 -11 17
-32 5 -47 -7 -8 -7 -15 -2 -19 12 -7 9 -66 -3 -86 -5 -8 -4 -11 3 -6 14 9 11
-46 -3 -56 -6 -5 -6 -8 2 -8 14 0 13 -40 -2 -40 -5 0 -4 -4 3 -9 14 -9 13 -32
-3 -43 -7 -5 -6 -8 0 -8 14 0 17 -38 4 -46 -7 -4 -7 -10 0 -18 10 -12 10 -34
-2 -52 -3 -6 -3 -14 0 -18 12 -12 12 -36 0 -36 -8 0 -8 -3 -2 -8 11 -8 18 -32
10 -32 -9 0 -48 24 -69 43 -11 10 -26 15 -33 13 -7 -3 -13 1 -13 9 0 8 -7 15
-16 15 -9 0 -25 10 -36 23 -11 12 -17 16 -13 9 10 -19 -9 -14 -25 7 -7 11 -17
18 -22 15 -4 -3 -8 0 -8 6 0 6 -4 8 -10 5 -6 -3 -10 -2 -10 3 0 4 -21 19 -46
31 -25 13 -48 29 -51 37 -3 8 -9 11 -14 8 -5 -3 -25 7 -44 22 -19 14 -35 22
-35 18 0 -5 -9 5 -19 21 -17 27 -17 31 -3 43 9 6 12 12 6 12 -11 0 -12 79 -1
97 4 6 3 14 -2 17 -11 7 -8 87 4 106 5 9 4 11 -3 6 -15 -9 -12 36 3 46 6 5 6
8 -1 8 -6 0 -11 11 -11 25 0 13 2 23 6 21 4 -3 7 4 7 14 0 10 -3 17 -7 14 -9
-5 -6 47 4 63 4 6 3 14 -2 17 -11 7 -8 87 4 106 5 8 4 11 -2 7 -13 -8 -12 76
1 85 7 5 7 8 -1 8 -7 0 -13 5 -13 11 0 5 5 7 12 3 7 -5 8 -3 2 7 -11 19 -12
81 -2 96 5 6 5 14 -2 18 -5 3 -10 11 -10 16 0 6 4 8 8 5 5 -3 9 1 9 9 0 8 -4
12 -8 9 -10 -6 -4 59 6 77 5 7 4 10 -3 5 -12 -7 -11 41 1 61 4 6 3 14 -3 18
-5 3 -10 11 -10 16 0 6 4 8 8 5 5 -3 9 1 9 9 0 8 -3 12 -7 10 -10 -6 -5 68 5
85 5 8 4 11 -3 6 -11 -7 -11 31 1 51 3 5 3 13 -1 17 -11 12 -8 96 3 96 6 0 4
4 -4 9 -13 8 -13 12 0 27 8 10 9 15 2 11 -8 -5 -11 1 -9 20 4 32 27 41 46 18
7 -8 19 -15 26 -15 8 0 14 -4 14 -10 0 -5 7 -7 15 -4 10 4 15 0 15 -11 0 -9 5
-13 10 -10 6 3 10 1 10 -5 0 -6 4 -8 10 -5 6 3 10 1 10 -4 0 -6 7 -11 15 -11
8 0 15 -4 15 -10 0 -5 12 -10 28 -10 19 0 23 -3 14 -9 -10 -6 -7 -10 12 -15
15 -4 24 -11 21 -16 -3 -6 1 -7 9 -4 9 3 16 1 16 -5 0 -6 7 -8 17 -4 11 4 14
3 9 -5 -4 -7 -2 -12 4 -12 6 0 18 -7 27 -15 8 -8 19 -13 24 -9 5 3 12 -2 15
-10 3 -9 10 -13 15 -10 5 3 9 0 9 -6 0 -6 4 -9 9 -6 4 3 16 -2 24 -12 9 -10
32 -24 51 -32 19 -7 33 -17 30 -22 -3 -4 4 -8 15 -8 12 0 21 -3 21 -7 0 -5 18
-17 40 -27 22 -11 40 -23 40 -28 0 -5 5 -6 10 -3 6 3 10 1 10 -5 0 -6 5 -8 10
-5 6 3 10 1 10 -5 0 -6 4 -9 9 -6 5 3 12 -1 15 -10 3 -8 10 -12 16 -9 5 3 10
1 10 -4 0 -6 7 -11 15 -11 8 0 15 -5 15 -11 0 -5 5 -7 10 -4 6 3 10 1 10 -4 0
-6 6 -11 14 -11 7 0 19 -7 26 -15 6 -8 17 -13 23 -12 7 1 11 -4 10 -10 -2 -7
0 -12 5 -11 11 4 72 -26 72 -35 0 -5 5 -5 10 -2 6 3 13 -1 16 -9 3 -9 15 -16
26 -16 10 0 16 -4 13 -10 -5 -9 16 -15 38 -11 5 1 6 -3 2 -9 -5 -9 8 -14 20
-7 2 1 11 -7 19 -18 9 -11 16 -15 16 -10 0 7 3 7 8 0 8 -11 36 -30 72 -47 14
-7 31 -18 38 -25 12 -12 20 -14 38 -12 3 0 13 -9 23 -20 9 -11 24 -21 31 -23
8 -2 20 -7 27 -13 29 -24 40 -30 52 -33 8 -2 25 -12 39 -23 14 -10 30 -19 37
-19 7 0 16 -7 19 -16 3 -8 10 -13 14 -10 5 3 18 -4 30 -14 12 -11 28 -20 37
-20 9 0 18 -7 21 -15 4 -8 10 -12 15 -10 4 3 14 -3 21 -14 10 -16 15 -18 27
-8 8 7 12 8 9 2 -7 -11 10 -28 32 -33 8 -2 18 -9 22 -15 4 -7 8 -7 8 -2 0 6 6
3 13 -5 7 -9 27 -22 44 -29 18 -7 30 -17 27 -22 -3 -5 -2 -9 3 -8 25 4 43 -2
37 -13 -5 -8 -2 -9 9 -5 11 4 17 1 17 -9 0 -8 4 -13 9 -9 5 3 15 0 23 -7 24
-23 75 -48 82 -40 4 4 6 0 4 -8 -2 -8 4 -15 12 -15 8 0 23 -7 33 -16 10 -9 35
-25 57 -35 22 -10 40 -26 40 -34 0 -13 1 -13 10 0 7 11 10 11 10 2 0 -7 4 -11
9 -8 5 3 12 -1 15 -10 3 -8 10 -12 16 -9 6 3 13 -1 16 -9 3 -9 15 -16 25 -16
10 0 19 -4 19 -9 0 -5 16 -15 34 -22 19 -7 33 -16 30 -21 -3 -4 4 -8 16 -8 12
0 18 -4 15 -10 -3 -5 2 -10 12 -10 10 0 14 -3 8 -8 -12 -8 -13 -22 -2 -39 5
-8 3 -13 -5 -13 -9 0 -9 -3 2 -10 12 -8 12 -10 1 -10 -11 0 -11 -3 0 -17 11
-13 11 -15 1 -9 -16 10 -13 -25 3 -36 6 -5 5 -8 -2 -8 -7 0 -13 -5 -13 -11 0
-6 6 -7 13 -2 6 4 4 -6 -7 -21 -10 -16 -13 -26 -8 -22 15 9 22 -7 12 -24 -5
-9 -4 -20 3 -29 10 -12 9 -13 -1 -7 -16 10 -13 -25 3 -36 6 -5 5 -8 -4 -8 -11
0 -11 -3 -1 -15 9 -11 9 -15 1 -15 -8 0 -9 -6 -2 -18 6 -11 6 -24 0 -34 -5 -9
-6 -19 -1 -22 10 -6 8 -68 -2 -85 -4 -6 -2 -18 4 -26 10 -12 10 -15 -1 -15
-11 0 -11 -2 1 -10 12 -8 12 -10 1 -10 -11 0 -11 -3 0 -17 11 -13 11 -15 1 -9
-16 10 -13 -25 3 -36 6 -5 5 -8 -2 -8 -7 0 -13 -5 -13 -11 0 -6 6 -7 13 -2 6
4 4 -6 -7 -21 -10 -16 -13 -26 -8 -22 15 9 22 -7 12 -24 -5 -9 -4 -20 3 -29
10 -12 9 -13 -1 -7 -16 10 -13 -25 3 -36 6 -5 5 -8 -4 -8 -11 0 -11 -3 -1 -15
9 -11 9 -15 1 -15 -8 0 -9 -6 -2 -18 6 -11 6 -24 0 -34 -5 -9 -6 -19 -1 -22
10 -6 8 -68 -2 -85 -4 -6 -2 -18 4 -26 10 -12 10 -15 -1 -15 -11 0 -11 -2 1
-10 12 -8 12 -10 1 -10 -11 0 -11 -3 0 -17 11 -13 11 -15 1 -9 -16 10 -13 -25
3 -36 6 -5 5 -8 -2 -8 -7 0 -13 -5 -13 -11 0 -6 6 -7 13 -2 6 4 4 -6 -7 -21
-10 -16 -13 -26 -8 -22 6 3 13 2 16 -3 4 -5 1 -13 -5 -17 -8 -4 -7 -9 2 -15 8
-5 9 -9 3 -9 -12 0 -12 -29 0 -49 5 -7 5 -16 0 -20 -11 -7 -11 -32 -1 -48 4
-6 2 -15 -4 -19 -8 -4 -7 -9 2 -15 9 -6 10 -9 2 -9 -12 0 -12 -17 0 -37 5 -8
3 -13 -4 -13 -8 0 -8 -4 1 -15 7 -8 8 -15 3 -15 -5 0 -10 -7 -10 -15 0 -8 5
-15 11 -15 6 0 5 -4 -2 -9 -8 -4 -14 -12 -14 -16 0 -4 6 -12 14 -16 7 -5 8 -9
2 -9 -12 0 -12 -29 0 -49 5 -7 5 -16 0 -20 -11 -7 -11 -32 -1 -48 4 -6 3 -14
-3 -18 -5 -3 -10 -11 -10 -16 0 -6 6 -7 13 -3 8 5 8 2 -2 -9 -11 -14 -11 -20
-1 -32 10 -12 10 -15 0 -15 -10 0 -10 -3 0 -15 9 -10 9 -15 1 -15 -13 0 -10
-22 4 -32 7 -5 6 -8 0 -8 -6 0 -11 -9 -12 -20 -1 -12 3 -18 9 -14 6 4 6 -1 -1
-14 -14 -26 -14 -35 0 -26 8 4 8 0 0 -15 -9 -16 -9 -21 1 -21 8 0 9 -3 3 -8
-12 -9 -13 -32 0 -51 5 -10 4 -16 -4 -19 -9 -3 -9 -8 1 -20 11 -13 11 -14 0
-8 -16 10 -13 -25 3 -36 6 -5 5 -8 -2 -8 -7 0 -13 -5 -13 -11 0 -6 6 -7 13 -2
6 4 4 -6 -7 -21 -10 -16 -13 -26 -8 -22 15 9 22 -7 12 -24 -5 -9 -4 -20 3 -29
10 -12 9 -13 -1 -7 -16 10 -13 -25 3 -36 6 -5 5 -8 -4 -8 -11 0 -11 -3 -1 -15
9 -11 9 -15 1 -15 -8 0 -9 -6 -2 -18 6 -11 6 -24 0 -34 -5 -9 -6 -19 -1 -22
10 -6 8 -68 -2 -85 -4 -6 -2 -18 4 -26 10 -12 10 -15 -1 -15 -11 0 -11 -2 1
-10 12 -8 12 -10 1 -10 -11 0 -11 -3 0 -17 11 -13 11 -15 1 -9 -16 10 -13 -25
3 -36 6 -5 5 -8 -2 -8 -7 0 -13 -5 -13 -11 0 -6 6 -7 13 -2 6 4 4 -6 -7 -21
-10 -16 -13 -26 -8 -22 15 9 22 -7 12 -24 -5 -9 -4 -20 3 -29 10 -12 9 -13 -1
-7 -16 10 -13 -25 3 -36 6 -5 5 -8 -4 -8 -11 0 -11 -3 -1 -15 9 -11 9 -15 1
-15 -8 0 -9 -6 -2 -18 6 -11 6 -24 0 -34 -5 -9 -6 -19 -1 -22 10 -6 8 -68 -2
-85 -4 -6 -2 -18 4 -26 10 -12 10 -15 -1 -15 -11 0 -11 -2 1 -10 12 -8 12 -10
1 -10 -11 0 -11 -3 0 -17 11 -13 11 -15 1 -9 -16 10 -13 -25 3 -36 6 -5 5 -8
-2 -8 -7 0 -13 -5 -13 -11 0 -6 6 -7 13 -2 6 4 4 -6 -7 -21 -10 -16 -13 -26
-8 -22 6 3 13 2 16 -3 4 -5 1 -13 -5 -17 -8 -4 -7 -9 2 -15 9 -6 10 -9 2 -9
-12 0 -12 -17 0 -37 4 -6 1 -13 -5 -16 -10 -3 -9 -8 2 -22 13 -17 13 -18 0
-10 -13 8 -13 7 -1 -8 10 -13 10 -17 1 -17 -10 0 -10 -3 -1 -14 9 -10 9 -16 1
-21 -8 -5 -8 -11 -1 -19 6 -7 8 -16 4 -19 -3 -4 -1 -7 6 -7 7 0 9 -4 6 -10 -3
-5 -3 -10 2 -10 4 0 14 -14 21 -30 8 -17 18 -28 23 -24 5 3 9 -3 9 -12 0 -10
3 -14 7 -11 3 4 15 -1 26 -10 15 -13 19 -14 13 -3 -5 11 -3 10 6 -2 11 -12 30
-16 85 -15 40 0 70 4 67 8 -2 4 6 11 18 15 22 6 78 54 64 54 -4 0 -1 6 6 14 7
8 16 12 19 10 3 -2 5 8 3 21 -1 14 2 25 8 25 6 0 8 13 6 30 -3 16 0 30 5 30 5
0 4 7 -3 15 -10 12 -10 15 1 15 11 0 11 2 -1 10 -13 9 -13 10 0 10 9 0 11 3 5
8 -13 9 -18 35 -5 27 5 -3 10 -2 10 4 0 5 -5 13 -10 16 -8 5 -7 12 2 23 11 13
11 14 -2 7 -13 -7 -13 -6 -2 7 10 13 10 17 0 21 -10 4 -10 7 1 15 9 7 10 11 2
17 -9 5 -9 10 -1 20 8 10 8 15 -1 20 -8 6 -7 10 2 16 12 7 12 9 0 9 -11 0 -11
3 -1 15 10 12 10 15 -1 15 -12 0 -12 2 0 9 9 6 10 10 2 16 -9 5 -9 10 -1 20 8
9 8 15 0 20 -6 3 -7 12 -3 18 11 19 11 47 -1 47 -6 0 -4 5 4 10 12 8 12 10 1
10 -11 0 -11 3 -1 15 10 12 10 15 -1 15 -11 0 -11 2 1 10 13 9 13 10 0 10 -13
0 -13 1 0 10 10 6 11 10 3 10 -9 0 -10 7 -4 23 5 13 5 30 1 38 -6 8 -4 16 3
21 9 6 9 8 -1 8 -8 0 -10 5 -6 12 12 19 12 48 0 48 -6 0 -4 5 4 10 10 6 11 10
3 10 -7 0 -13 5 -13 11 0 5 3 8 8 5 10 -6 8 56 -2 72 -4 7 -2 12 5 12 9 0 9 3
0 14 -9 10 -9 16 -1 21 8 5 8 11 1 19 -6 7 -8 16 -4 20 11 11 10 46 -1 46 -6
0 -4 5 4 10 12 8 12 10 1 10 -11 0 -11 3 -1 15 10 12 10 15 -1 15 -11 0 -11 2
1 10 13 9 13 10 0 10 -13 0 -13 1 0 10 10 6 11 10 3 10 -9 0 -10 7 -4 23 5 13
5 30 1 38 -6 8 -4 16 3 21 9 6 9 8 -1 8 -8 0 -10 5 -6 12 12 19 12 48 0 48 -6
0 -4 5 4 10 10 6 11 10 3 10 -7 0 -13 5 -13 11 0 5 4 8 8 5 10 -6 8 67 -2 83
-4 6 -1 11 6 11 10 0 10 2 -1 9 -11 7 -11 9 0 14 12 5 12 6 0 6 -11 1 -11 4 0
18 12 15 12 16 -1 8 -12 -7 -13 -6 -3 7 7 8 9 19 5 23 -4 5 -1 5 6 1 6 -4 12
-2 12 3 0 6 7 11 15 11 8 0 15 5 15 11 0 5 5 7 10 4 6 -3 10 -1 10 5 0 6 4 9
9 6 5 -3 12 1 15 10 3 8 10 13 14 10 5 -3 18 3 29 14 12 10 24 16 27 13 3 -4
6 -1 6 5 0 7 6 12 13 12 7 0 23 9 35 20 12 11 24 21 27 21 23 3 45 13 45 20 0
5 7 9 15 9 9 0 18 6 21 14 3 9 12 12 21 9 12 -5 14 -3 8 7 -5 8 -3 11 6 8 14
-5 25 2 59 36 10 10 23 15 29 11 6 -3 11 -1 11 4 0 6 6 11 14 11 7 0 19 7 26
15 7 8 16 13 20 10 4 -3 11 2 14 11 3 8 10 12 16 9 6 -3 13 1 16 9 3 9 13 16
21 16 8 0 21 7 30 15 8 8 19 13 24 10 5 -4 9 -1 9 4 0 6 7 11 16 11 8 0 13 4
10 9 -7 11 22 23 35 15 5 -3 8 -2 7 3 -2 4 0 9 4 11 11 5 120 70 139 83 10 7
20 11 24 10 4 -2 11 1 14 6 7 10 81 57 94 59 4 1 12 2 18 3 5 0 8 5 5 9 -2 4
5 9 16 9 12 1 31 12 42 25 12 13 28 24 36 26 8 2 18 8 21 14 4 6 12 7 19 3 8
-5 11 -4 7 2 -4 5 6 16 21 24 15 7 35 20 45 28 9 8 17 11 17 7 0 -4 7 0 16 8
8 9 20 14 25 11 5 -4 9 -2 9 4 0 9 47 39 67 43 5 0 13 8 20 17 7 9 13 12 13 8
0 -5 7 -1 16 7 8 9 19 14 24 11 4 -3 10 2 14 10 3 8 12 15 21 15 8 0 15 5 15
12 0 6 3 8 7 5 3 -4 21 4 39 18 18 14 37 25 43 25 6 0 11 5 11 11 0 5 5 7 10
4 6 -3 10 -1 10 4 0 6 9 11 21 11 11 0 17 5 14 10 -3 6 -1 10 6 10 7 0 21 8
32 18 12 9 17 11 12 3 -8 -13 54 26 66 42 3 4 15 9 27 10 11 0 18 5 16 9 -3 5
8 13 25 19 17 6 31 15 31 20 0 5 9 9 20 9 11 0 20 4 20 8 0 5 21 20 48 33 26
13 51 30 55 37 5 7 12 10 18 7 5 -4 9 -1 9 5 0 6 5 8 10 5 6 -3 10 -1 10 4 0
6 6 11 14 11 8 0 16 5 18 10 2 6 13 12 25 13 12 0 20 4 18 7 -4 6 17 26 27 26
4 -1 16 7 27 16 11 9 22 13 26 10 4 -4 11 1 16 10 6 11 16 15 26 11 11 -4 14
-3 9 5 -4 7 -1 12 8 12 9 0 16 5 16 11 0 5 5 7 10 4 6 -3 10 -1 10 5 0 6 5 8
10 5 6 -3 10 -2 10 4 0 6 17 18 38 28 20 9 40 21 43 26 4 5 12 6 19 2 8 -5 11
-4 7 2 -7 10 20 28 36 24 4 0 10 6 13 14 4 8 12 15 18 15 7 0 27 11 46 25 18
13 37 22 41 19 5 -3 9 0 9 6 0 7 7 9 16 6 8 -3 12 -2 9 4 -3 6 -2 10 4 10 6 0
19 10 31 22 11 12 20 18 20 14 0 -10 21 12 49 52 12 17 19 32 15 32 -3 0 -2 6
3 13 10 12 15 3391 6 3428 -3 11 -9 16 -14 13 -5 -3 -6 2 -3 10 3 9 1 16 -6
16 -6 0 -9 4 -6 8 2 4 -9 18 -25 31 -16 13 -26 27 -23 32 3 5 2 9 -3 8 -20 -3
-34 2 -28 11 3 6 0 10 -7 10 -12 0 -32 15 -100 76 -15 13 -31 24 -34 24 -4 0
-17 10 -30 23 -36 34 -63 57 -69 57 -5 0 -47 34 -77 63 -10 9 -22 17 -26 17
-4 0 -14 9 -22 20 -8 11 -19 20 -24 20 -6 0 -21 12 -34 28 -13 15 -21 20 -17
12 4 -10 2 -9 -8 2 -8 10 -17 15 -20 11 -4 -3 -7 0 -7 9 0 8 -11 20 -25 26
-14 6 -25 16 -25 22 0 5 -5 10 -11 10 -7 0 -22 10 -35 23 -35 33 -63 57 -71
60 -5 1 -7 5 -5 10 2 7 -13 11 -30 8 -5 0 -8 3 -8 9 0 5 -8 10 -17 10 -15 0
-16 2 -3 10 13 8 12 10 -2 10 -10 0 -18 5 -18 10 0 6 -7 10 -15 10 -8 0 -19 9
-25 20 -6 11 -16 20 -23 20 -7 0 -25 14 -41 30 -16 17 -34 30 -39 30 -14 0
-56 48 -48 55 3 4 2 5 -4 4 -13 -4 -62 28 -103 68 -18 18 -35 32 -38 32 -3 -1
-22 13 -41 30 -19 17 -39 31 -44 31 -4 0 -13 9 -19 20 -6 11 -16 20 -23 20 -7
0 -20 8 -29 18 -26 27 -46 42 -57 42 -5 0 -13 9 -16 20 -4 11 -11 18 -16 15
-5 -4 -9 -1 -9 5 0 6 -4 8 -10 5 -5 -3 -10 1 -10 9 0 9 -5 16 -10 16 -12 0
-32 15 -57 42 -9 9 -20 15 -24 12 -4 -2 -10 5 -14 16 -4 11 -10 18 -14 16 -4
-3 -24 11 -44 29 -21 19 -40 34 -43 34 -11 0 -33 29 -26 35 3 4 -1 4 -11 0
-10 -3 -17 -1 -17 6 0 6 -5 8 -12 4 -7 -4 -8 -3 -4 4 4 6 -4 16 -16 23 -13 7
-30 20 -39 31 -9 10 -21 18 -26 18 -6 0 -19 11 -29 25 -10 14 -25 23 -31 20
-7 -2 -13 2 -13 10 0 8 -4 15 -9 15 -14 0 -81 57 -74 64 3 3 0 6 -8 6 -8 0
-27 11 -42 25 -15 14 -27 23 -27 19 0 -4 -8 3 -19 14 -10 12 -24 22 -30 22 -7
0 -9 5 -6 10 3 6 2 10 -2 10 -11 0 -44 25 -83 62 -16 14 -31 23 -34 20 -3 -3
-6 0 -6 6 0 7 -4 12 -10 12 -14 0 -59 48 -51 56 3 4 0 4 -7 0 -7 -4 -24 4 -42
22 -16 16 -32 27 -35 24 -3 -3 -5 0 -5 6 0 7 -7 12 -16 12 -8 0 -13 4 -10 9 3
4 -6 13 -19 19 -14 7 -25 16 -25 22 0 5 -7 10 -15 10 -8 0 -19 9 -25 20 -6 11
-16 20 -23 20 -7 0 -20 8 -29 18 -8 9 -29 27 -44 39 -16 12 -39 31 -51 42 -12
12 -26 21 -30 21 -5 0 -15 9 -23 20 -8 11 -20 20 -27 20 -7 0 -13 4 -13 8 0 5
-11 15 -25 22 -14 7 -25 19 -25 27 0 7 -3 12 -7 11 -15 -3 -43 14 -37 23 3 5
2 8 -3 7 -14 -4 -53 13 -49 21 7 11 -124 10 -157 -1z m113 -468 c6 0 19 -8 29
-17 55 -51 81 -72 81 -65 0 4 5 -1 11 -10 5 -10 17 -18 25 -18 8 0 12 -4 9
-10 -3 -5 1 -10 10 -10 9 0 13 -4 10 -10 -3 -5 1 -10 10 -10 9 0 29 -12 45
-27 16 -16 40 -37 55 -48 14 -11 35 -28 46 -37 10 -10 22 -18 26 -18 6 0 28
-19 61 -52 9 -10 22 -18 28 -18 7 0 15 -7 18 -16 3 -8 11 -12 17 -8 8 4 9 3 5
-4 -4 -6 4 -16 16 -23 13 -7 28 -19 35 -28 7 -9 13 -12 13 -8 0 4 11 -2 24
-15 39 -38 66 -58 77 -58 5 0 7 -4 4 -10 -3 -5 -1 -10 4 -10 11 0 42 -23 72
-54 11 -11 19 -16 19 -12 0 4 6 1 14 -6 8 -7 11 -17 8 -22 -3 -5 -1 -6 4 -3 5
3 27 -10 49 -29 22 -19 43 -34 48 -34 4 0 5 -4 2 -10 -3 -5 1 -10 10 -10 9 0
29 -13 45 -30 16 -16 34 -30 40 -30 5 0 10 -5 10 -12 0 -6 3 -9 6 -5 7 7 42
-26 37 -35 -2 -5 2 -8 10 -8 8 0 20 -7 27 -15 7 -8 17 -12 23 -8 5 3 8 2 5 -3
-3 -5 0 -15 8 -22 8 -7 14 -9 14 -5 0 4 11 -4 24 -19 13 -16 28 -28 34 -28 5
0 13 -7 16 -16 4 -9 9 -14 12 -11 8 8 33 -16 27 -25 -2 -5 2 -8 9 -8 7 0 28
-13 47 -29 32 -28 33 -29 12 -36 -12 -3 -19 -11 -15 -16 3 -5 2 -8 -3 -7 -4 2
-26 -8 -48 -21 -22 -14 -44 -25 -48 -25 -4 -1 -11 -6 -15 -11 -4 -6 -23 -18
-42 -28 -19 -9 -30 -17 -25 -17 6 0 -3 -7 -19 -15 -15 -8 -33 -12 -40 -8 -6 3
-8 2 -4 -2 9 -10 -63 -56 -75 -48 -4 2 -6 -1 -5 -9 2 -8 -4 -12 -17 -10 -11 2
-17 0 -13 -4 7 -6 -99 -77 -127 -85 -10 -3 -22 -12 -49 -36 -8 -7 -16 -9 -20
-6 -3 4 -6 -1 -6 -10 0 -10 -5 -14 -15 -11 -8 4 -15 1 -15 -6 0 -6 -4 -8 -10
-5 -5 3 -10 1 -10 -4 0 -6 -5 -11 -10 -11 -6 0 -20 -9 -32 -20 -12 -10 -25
-17 -30 -14 -4 3 -8 0 -8 -7 0 -7 -3 -9 -7 -6 -3 4 -16 -3 -28 -16 -11 -12
-28 -23 -36 -25 -7 -2 -15 -8 -17 -13 -2 -5 -10 -9 -18 -9 -8 0 -14 -5 -14
-11 0 -5 -4 -8 -9 -5 -5 3 -14 -1 -21 -9 -7 -8 -17 -15 -22 -15 -5 0 -16 -7
-25 -15 -8 -8 -19 -12 -25 -9 -7 4 -8 2 -4 -4 4 -7 2 -12 -3 -12 -19 0 -26 -3
-50 -26 -14 -13 -28 -21 -33 -18 -4 3 -11 -2 -14 -10 -3 -9 -10 -13 -15 -10
-5 3 -9 0 -9 -7 0 -7 -3 -10 -6 -6 -3 3 -16 -3 -27 -14 -12 -11 -27 -17 -35
-14 -7 2 -11 1 -8 -4 6 -9 -22 -26 -36 -23 -5 1 -8 -5 -8 -13 0 -8 -5 -15 -11
-15 -5 0 -7 6 -4 13 4 6 1 5 -7 -4 -23 -27 -67 -51 -79 -43 -8 4 -9 3 -5 -4 4
-6 -6 -18 -24 -27 -18 -10 -30 -11 -30 -5 0 6 -4 9 -9 6 -5 -3 -20 4 -33 17
-14 12 -31 23 -38 25 -7 1 -19 9 -27 17 -8 9 -18 13 -23 10 -5 -3 -16 5 -24
17 -9 12 -16 19 -16 15 0 -5 -13 1 -29 12 -16 12 -34 21 -39 21 -5 0 -13 7
-16 16 -4 9 -9 14 -13 11 -3 -4 -24 8 -47 26 -22 17 -36 25 -32 17 5 -8 -1 -5
-13 8 -20 20 -34 26 -53 23 -5 0 -8 6 -8 16 0 9 -3 14 -6 10 -4 -3 -21 5 -39
18 -17 14 -37 25 -44 25 -6 0 -14 7 -17 15 -4 8 -15 15 -25 15 -11 0 -22 6
-25 14 -3 9 -12 12 -21 9 -10 -4 -14 -2 -10 4 6 10 -27 27 -46 24 -5 -1 -6 3
-2 8 3 6 -6 13 -20 17 -14 3 -25 13 -25 21 0 8 -4 11 -10 8 -5 -3 -10 0 -10 7
0 10 -2 10 -8 1 -6 -9 -12 -7 -22 7 -8 11 -22 20 -32 20 -10 0 -18 7 -18 17 0
9 -3 13 -6 10 -10 -9 -46 12 -39 23 3 6 -1 7 -9 4 -9 -4 -18 0 -22 9 -3 9 -12
13 -20 10 -7 -3 -17 2 -20 11 -3 9 -10 13 -15 10 -5 -3 -9 -1 -9 5 0 5 -10 13
-22 17 -33 10 -69 40 -60 50 4 5 -2 2 -12 -6 -14 -11 -18 -11 -12 -2 5 9 1 15
-13 19 -12 3 -21 10 -21 15 0 5 -4 7 -9 3 -5 -3 -20 5 -33 17 -13 13 -30 24
-38 26 -8 2 -16 8 -18 13 -2 5 -13 9 -24 9 -12 0 -18 3 -15 7 4 3 -3 11 -16
18 -97 51 -102 58 -65 89 17 14 35 23 40 20 5 -3 7 0 6 8 -2 7 3 12 10 10 8
-1 11 2 7 8 -3 5 2 13 12 17 10 4 25 15 34 25 9 10 21 18 27 18 5 0 12 7 16
15 3 8 12 15 20 15 9 0 20 9 26 20 6 11 15 18 21 15 5 -4 9 1 9 9 0 9 4 15 9
13 4 -1 18 9 30 23 13 14 19 18 16 10 -4 -8 3 -3 16 12 13 14 34 29 47 33 12
3 20 11 17 16 -4 5 5 13 19 19 14 5 26 12 26 15 0 4 -5 3 -12 -1 -7 -4 -8 -3
-4 5 4 6 11 9 15 6 5 -2 25 11 45 29 20 19 36 33 36 30 0 -3 6 1 14 8 8 7 11
17 8 22 -3 5 0 6 5 3 6 -4 20 1 31 11 11 9 37 31 58 47 20 17 43 36 50 43 7 6
18 12 24 12 6 0 8 5 5 10 -3 6 1 10 9 10 9 0 16 4 16 8 0 5 22 24 49 43 27 18
47 37 44 43 -3 5 -1 6 5 2 5 -3 30 13 53 36 24 24 39 37 34 29 -5 -9 2 -7 17
5 14 10 24 22 21 27 -2 4 2 7 10 7 8 0 18 7 21 16 4 9 9 15 12 12 5 -6 32 14
85 64 16 15 29 25 29 21 0 -3 11 6 24 20 13 14 26 23 29 21 3 -3 11 4 17 16 6
12 14 20 17 17 2 -3 22 11 43 30 21 19 41 35 44 34 3 0 16 9 27 20 20 20 23
20 31 5 5 -9 13 -16 18 -16z m-1662 -1330 c7 0 12 -4 12 -10 0 -5 7 -10 15
-10 8 0 15 -4 15 -10 0 -5 7 -10 15 -10 8 0 15 -5 15 -11 0 -5 4 -8 9 -4 6 3
14 -3 20 -12 5 -10 12 -17 15 -15 13 5 27 2 22 -6 -2 -4 10 -14 27 -22 18 -7
38 -20 45 -27 8 -7 17 -11 22 -8 4 3 11 -2 14 -11 3 -8 10 -13 14 -10 5 3 16
-4 25 -15 9 -10 24 -19 32 -19 8 0 15 -4 15 -10 0 -5 7 -10 15 -10 8 0 15 -5
15 -11 0 -5 5 -7 10 -4 6 3 10 2 10 -4 0 -5 10 -13 23 -16 12 -4 30 -17 40
-29 10 -11 16 -14 12 -6 -4 8 2 6 12 -6 10 -11 24 -19 31 -16 6 2 15 -3 18
-12 3 -9 10 -13 15 -10 5 3 9 1 9 -4 0 -5 18 -17 40 -28 22 -10 40 -22 40 -26
0 -5 9 -8 20 -8 11 0 20 -7 20 -16 0 -8 5 -12 11 -9 6 4 17 -1 24 -11 8 -11
15 -15 15 -11 0 7 10 0 44 -30 8 -7 16 -9 20 -6 3 4 6 1 6 -5 0 -7 7 -12 15
-12 8 0 15 -5 15 -11 0 -5 4 -8 8 -5 5 3 19 -4 30 -15 12 -11 22 -17 22 -14 0
3 10 -3 22 -15 12 -11 28 -20 35 -20 8 0 11 -4 8 -10 -3 -6 1 -7 9 -4 9 4 18
-1 22 -10 3 -9 12 -16 19 -16 7 0 18 -7 25 -15 7 -9 15 -13 18 -11 3 3 22 -8
42 -24 20 -16 40 -27 44 -23 3 3 6 1 6 -6 0 -7 5 -9 10 -6 6 3 10 -1 10 -10 0
-9 4 -14 9 -10 5 3 16 -2 25 -11 9 -8 21 -12 27 -8 8 4 9 3 5 -4 -4 -7 -1 -12
8 -12 9 0 16 -4 16 -9 0 -8 26 -19 43 -17 5 1 15 -10 22 -24 7 -14 15 -23 17
-21 7 9 48 -11 42 -21 -5 -7 -2 -9 8 -6 8 4 21 2 29 -3 12 -7 12 -9 -1 -10 -8
0 -4 -4 10 -8 16 -5 24 -13 22 -24 -2 -9 3 -17 10 -17 9 0 9 -3 0 -12 -9 -9
-9 -15 1 -27 9 -12 9 -13 0 -7 -7 4 -13 3 -13 -3 0 -5 5 -13 11 -17 8 -4 8 -9
0 -17 -7 -7 -7 -14 0 -24 9 -9 8 -13 0 -13 -8 0 -9 -5 -2 -18 7 -13 6 -23 -1
-30 -9 -9 -9 -12 2 -12 9 0 8 -5 -6 -16 -10 -8 -14 -13 -7 -10 6 4 14 2 18 -4
3 -5 1 -10 -6 -10 -9 0 -9 -3 0 -14 9 -10 9 -16 1 -21 -8 -5 -7 -11 2 -23 10
-12 10 -14 1 -8 -7 4 -13 3 -13 -3 0 -5 5 -13 11 -17 8 -4 8 -9 0 -17 -14 -14
-14 -30 0 -21 8 5 8 1 0 -14 -6 -11 -11 -23 -11 -27 0 -3 5 -3 11 1 8 4 8 0 0
-15 -9 -16 -9 -21 1 -21 8 0 9 -3 3 -8 -12 -9 -13 -32 0 -51 5 -10 4 -16 -4
-19 -9 -3 -9 -8 1 -20 11 -13 11 -14 0 -8 -16 10 -13 -25 3 -36 6 -5 5 -8 -2
-8 -7 0 -13 -5 -13 -11 0 -6 6 -7 13 -2 6 4 4 -6 -7 -21 -10 -16 -13 -26 -8
-22 15 9 22 -7 12 -24 -5 -9 -4 -20 3 -29 10 -12 9 -13 -1 -7 -16 10 -13 -25
3 -36 6 -5 5 -8 -4 -8 -11 0 -11 -3 -1 -15 9 -11 9 -15 1 -15 -8 0 -9 -5 -2
-18 6 -11 6 -24 1 -32 -5 -9 -4 -20 3 -29 9 -12 9 -13 0 -7 -7 4 -13 3 -13 -3
0 -5 5 -13 11 -17 8 -4 8 -9 0 -17 -7 -7 -7 -14 0 -23 15 -18 -17 -12 -41 8
-10 9 -21 14 -24 11 -3 -4 -6 -1 -6 6 0 7 -4 10 -9 7 -4 -3 -16 3 -26 14 -10
11 -22 17 -26 14 -5 -3 -12 2 -15 10 -3 9 -10 14 -14 11 -5 -3 -15 1 -23 10
-8 8 -21 16 -28 17 -8 2 -22 12 -31 22 -12 12 -18 14 -18 6 0 -7 -13 1 -30 18
-16 18 -30 27 -30 22 0 -11 -62 28 -68 43 -2 4 -8 5 -13 1 -5 -3 -9 0 -9 6 0
6 -4 9 -8 6 -5 -3 -21 6 -36 19 -16 14 -33 22 -37 19 -5 -3 -9 0 -9 5 0 6 -5
11 -11 11 -6 0 -22 9 -36 20 -14 11 -29 17 -34 14 -5 -3 -9 2 -9 11 0 9 -4 14
-9 10 -5 -3 -17 2 -25 11 -9 8 -16 13 -16 9 0 -4 -12 3 -26 14 -15 11 -31 18
-37 14 -6 -3 -7 -1 -3 5 5 8 0 12 -14 12 -11 0 -23 7 -26 15 -4 8 -10 12 -15
9 -5 -3 -9 -1 -9 4 0 4 -16 14 -35 22 -19 7 -32 17 -29 22 3 4 -2 8 -11 8 -9
0 -23 7 -32 15 -8 8 -19 13 -24 10 -5 -4 -9 -1 -9 4 0 6 -7 11 -15 11 -8 0
-15 5 -15 10 0 6 -7 10 -15 10 -8 0 -15 5 -15 12 0 6 -3 9 -6 5 -4 -3 -21 5
-39 18 -17 14 -39 25 -47 25 -9 0 -19 7 -22 16 -3 8 -10 12 -16 9 -5 -3 -20 5
-33 17 -13 13 -29 22 -35 20 -7 -2 -12 1 -12 7 0 6 -6 11 -14 11 -8 0 -16 5
-18 10 -2 6 -13 12 -25 13 -12 0 -21 6 -20 12 1 5 -4 9 -10 8 -7 -2 -13 2 -13
7 0 6 -7 10 -15 10 -8 0 -15 5 -15 11 0 5 -4 7 -10 4 -5 -3 -10 -1 -10 5 0 6
-4 9 -9 6 -5 -4 -11 -2 -13 3 -1 5 -10 11 -18 13 -8 2 -22 11 -31 20 -9 10
-19 15 -23 11 -3 -3 -6 -1 -6 6 0 7 -4 9 -10 6 -5 -3 -10 -1 -10 5 0 6 -4 8
-10 5 -5 -3 -10 1 -10 9 0 9 -7 13 -19 11 -11 -2 -22 3 -25 11 -3 8 -12 14
-21 14 -8 0 -15 5 -15 10 0 6 -9 10 -21 10 -11 0 -17 5 -14 10 3 6 -3 10 -14
10 -12 0 -21 5 -21 10 0 6 -7 10 -15 10 -7 0 -19 8 -24 18 -8 12 -10 13 -11 3
0 -11 -5 -10 -20 5 -33 33 -45 41 -58 36 -6 -2 -12 1 -12 7 0 6 -7 11 -15 11
-8 0 -15 3 -15 8 0 4 -18 15 -40 25 -22 9 -40 22 -40 28 0 5 -4 7 -10 4 -5 -3
-10 -1 -10 4 0 6 -6 10 -12 9 -7 -2 -12 3 -10 10 2 9 -4 12 -17 7 -12 -4 -21
0 -25 11 -3 9 -13 14 -21 10 -8 -3 -17 0 -21 6 -5 7 -2 8 6 3 9 -5 11 -4 6 3
-4 7 -16 12 -27 12 -10 0 -19 5 -19 10 0 6 -6 10 -13 10 -7 0 -22 8 -33 18
-10 9 -38 26 -61 37 -24 11 -45 26 -48 33 -2 7 -1 11 4 8 5 -3 11 1 15 9 3 8
13 15 21 15 9 0 14 4 11 8 -3 5 6 15 19 22 13 7 22 18 18 23 -3 6 -1 7 5 3 6
-3 17 1 25 9 9 8 21 15 27 15 6 0 9 4 6 9 -6 9 22 26 37 22 5 -1 6 3 2 9 -3 5
2 13 12 17 10 3 30 20 46 36 15 17 27 28 27 24 0 -7 28 14 59 44 9 8 34 29 56
45 22 16 44 35 48 41 4 7 14 13 21 13 7 0 21 11 32 24 10 14 22 23 26 20 4 -3
11 2 14 10 3 9 13 16 21 16 8 0 11 5 8 10 -3 6 1 10 9 10 9 0 16 4 16 8 0 5
22 24 49 43 27 18 47 37 45 41 -3 5 -2 8 3 7 22 -4 34 2 27 14 -4 6 2 4 13 -5
11 -10 25 -18 31 -18z m3316 9 c-3 -5 0 -9 5 -9 11 0 38 -20 73 -52 10 -10 18
-15 18 -10 0 4 5 -1 11 -11 6 -9 15 -14 21 -11 6 4 8 3 5 -3 -4 -6 1 -17 10
-24 14 -12 16 -12 9 1 -5 8 3 3 16 -12 14 -16 29 -28 33 -28 7 0 37 -25 85
-72 15 -16 32 -28 38 -28 6 0 16 -8 21 -17 6 -10 11 -15 11 -11 0 4 14 -6 32
-22 17 -16 36 -26 41 -23 6 3 7 1 3 -5 -4 -7 -1 -12 9 -12 9 0 13 -4 10 -10
-3 -5 1 -10 9 -10 8 0 22 -9 30 -21 9 -13 19 -18 27 -14 8 5 10 4 5 -3 -4 -7
-4 -12 1 -12 4 0 22 -13 40 -28 60 -52 78 -66 83 -65 3 1 9 -5 13 -13 5 -8 12
-12 18 -9 5 4 9 1 9 -5 0 -6 5 -8 11 -5 6 4 5 -2 -3 -14 -7 -12 -19 -21 -26
-21 -8 0 -10 -5 -6 -12 5 -8 2 -9 -9 -5 -11 4 -17 1 -17 -7 0 -8 -8 -13 -17
-12 -10 0 -17 -4 -16 -11 2 -7 -4 -10 -12 -7 -8 4 -15 1 -15 -6 0 -6 -5 -10
-12 -8 -6 2 -23 -6 -36 -19 -14 -13 -32 -21 -39 -18 -8 2 -12 1 -9 -4 5 -8
-17 -23 -37 -25 -4 -1 -11 -7 -16 -14 -5 -8 -12 -14 -17 -14 -19 -1 -34 -11
-28 -19 3 -5 -2 -6 -10 -3 -9 4 -16 1 -16 -6 0 -7 -6 -10 -14 -7 -8 3 -16 1
-18 -4 -2 -6 -11 -11 -20 -13 -10 -1 -21 -6 -25 -11 -4 -4 -2 -5 5 -1 6 4 12
3 12 -3 0 -5 -13 -12 -30 -16 -16 -4 -30 -10 -30 -15 0 -7 -42 -23 -47 -17 -1
1 -9 -7 -17 -18 -8 -11 -17 -17 -21 -13 -4 4 -18 -5 -31 -19 -12 -13 -28 -22
-33 -18 -6 3 -11 1 -11 -5 0 -6 -4 -8 -10 -5 -5 3 -10 2 -10 -3 0 -5 -16 -17
-35 -26 -19 -9 -35 -21 -35 -26 0 -6 -3 -10 -7 -9 -16 2 -53 -14 -53 -22 0 -5
-7 -9 -16 -9 -9 0 -12 -5 -8 -12 4 -7 3 -10 -1 -5 -5 4 -19 0 -32 -8 -13 -9
-23 -12 -23 -8 0 5 -4 3 -8 -2 -10 -15 -66 -50 -74 -47 -5 1 -8 -3 -8 -8 0 -6
-7 -10 -15 -10 -8 0 -15 -5 -15 -11 0 -5 -4 -7 -10 -4 -5 3 -10 1 -10 -5 0 -6
-4 -8 -10 -5 -5 3 -10 3 -10 -2 0 -13 -61 -44 -72 -36 -6 3 -8 2 -5 -4 4 -5
-6 -16 -21 -24 -15 -8 -30 -18 -33 -22 -3 -5 -14 -9 -23 -11 -10 -1 -21 -8
-26 -16 -4 -7 -15 -10 -25 -7 -9 4 -13 3 -10 -3 3 -5 -12 -18 -34 -29 -22 -12
-43 -25 -46 -31 -4 -6 -10 -8 -15 -5 -5 3 -11 1 -15 -5 -3 -5 -21 -17 -40 -26
-19 -9 -35 -20 -35 -25 0 -5 -7 -9 -16 -9 -8 0 -22 -7 -30 -15 -9 -8 -25 -15
-37 -15 -18 0 -19 -2 -7 -10 12 -8 11 -10 -7 -10 -13 0 -23 -5 -23 -11 0 -5
-4 -8 -9 -4 -6 3 -14 -3 -20 -12 -6 -10 -11 -15 -11 -10 0 4 -10 1 -23 -8 -13
-8 -27 -12 -32 -8 -4 5 -5 3 -2 -3 4 -7 -9 -18 -33 -28 -22 -9 -40 -21 -40
-27 0 -5 -4 -7 -10 -4 -5 3 -10 1 -10 -5 0 -6 -4 -8 -10 -5 -5 3 -10 2 -10 -3
0 -5 -8 -12 -17 -16 -21 -7 -56 -28 -64 -39 -3 -4 -15 -9 -27 -10 -11 0 -18
-5 -16 -9 3 -4 -1 -8 -9 -8 -8 0 -18 -7 -21 -16 -4 -9 -9 -14 -13 -11 -3 4
-18 -2 -33 -13 -16 -11 -33 -20 -39 -20 -6 0 -11 -4 -11 -10 0 -5 -9 -10 -19
-10 -10 0 -21 -7 -25 -15 -3 -8 -9 -15 -13 -14 -21 4 -33 -2 -27 -13 5 -8 2
-9 -10 -5 -10 4 -19 1 -22 -8 -4 -8 -12 -15 -20 -15 -8 0 -14 -5 -14 -11 0 -5
-4 -7 -10 -4 -5 3 -10 1 -10 -5 0 -7 -5 -6 -14 2 -16 14 -16 29 -1 40 6 5 5 8
-2 8 -7 0 -13 5 -13 11 0 5 4 8 8 5 10 -6 9 45 -2 62 -4 7 -2 12 6 13 10 0 11
2 0 6 -9 4 -10 8 -2 18 8 10 8 15 -1 20 -8 6 -7 10 2 16 11 7 11 9 -1 9 -13 0
-13 1 0 10 11 7 11 10 2 10 -8 0 -10 5 -5 13 12 19 12 36 1 43 -6 4 -5 10 3
15 12 7 12 9 0 9 -10 0 -11 3 -2 14 9 11 9 16 0 21 -8 6 -7 10 2 16 10 6 11 9
2 9 -7 0 -13 5 -13 11 0 5 6 7 13 3 8 -5 8 -2 -2 9 -10 13 -10 17 -1 17 9 0 9
4 -1 17 -12 15 -12 16 1 8 13 -8 13 -7 1 8 -11 14 -11 17 0 18 11 0 11 2 1 6
-9 4 -10 8 -2 18 8 10 8 15 -1 20 -8 6 -7 10 2 16 11 7 11 9 -1 9 -13 0 -13 1
0 10 11 7 11 10 2 10 -8 0 -10 5 -5 13 12 19 12 36 1 43 -6 4 -5 10 3 15 12 7
12 9 0 9 -10 0 -11 3 -2 14 9 11 9 16 0 21 -8 6 -7 10 2 16 10 6 11 9 2 9 -7
0 -13 5 -13 11 0 5 6 7 13 3 8 -5 8 -2 -2 9 -10 13 -10 17 -1 17 9 0 9 4 -1
17 -12 15 -12 16 1 8 13 -8 13 -7 1 8 -11 14 -11 17 0 18 11 0 11 2 1 6 -9 4
-10 8 -2 18 8 10 8 15 -1 20 -8 6 -7 10 2 16 10 6 11 9 2 9 -7 0 -13 5 -13 11
0 5 6 7 13 3 9 -5 9 -4 0 6 -10 11 -9 16 5 27 14 11 14 12 1 8 -26 -9 -18 25
10 43 14 9 32 22 39 29 7 7 20 13 27 13 8 0 18 6 22 14 4 8 10 15 13 15 19 0
39 15 33 25 -3 6 -2 8 2 3 5 -4 19 0 32 8 13 9 23 13 23 10 0 -3 10 5 23 18
12 13 28 22 35 20 6 -3 12 0 12 6 0 6 7 11 15 11 8 0 15 4 15 9 0 5 14 14 30
20 17 5 30 13 30 16 0 3 -5 3 -12 -1 -7 -4 -8 -3 -4 5 4 6 11 9 16 6 4 -2 19
4 32 15 14 11 28 16 32 13 3 -3 6 -1 6 6 0 7 4 10 9 7 5 -3 11 1 15 9 3 8 12
15 21 15 8 0 15 4 15 10 0 5 7 6 17 3 10 -4 14 -2 9 5 -3 6 3 13 14 17 11 3
20 11 20 16 0 5 3 8 8 7 4 -1 17 3 28 10 12 6 25 8 29 4 4 -4 6 0 3 8 -4 14
45 46 65 42 4 -1 7 3 7 8 0 6 7 10 15 10 8 0 15 4 15 9 0 11 40 26 55 22 5 -1
7 0 3 4 -8 9 14 35 25 28 4 -2 7 1 7 7 0 6 5 8 10 5 6 -3 10 -1 10 5 0 6 4 9
9 6 5 -3 12 1 15 10 3 8 10 12 16 9 5 -3 10 -1 10 4 0 6 6 11 13 11 7 0 23 9
35 20 12 11 25 21 29 21 5 1 7 5 6 10 -2 4 4 6 12 3 8 -4 15 -1 15 6 0 6 5 8
10 5 6 -3 10 -1 10 5 0 6 5 8 10 5 6 -3 10 -1 10 5 0 6 5 8 12 4 6 -4 8 -3 5
3 -4 6 1 17 10 24 14 12 16 12 8 -1 -7 -12 -5 -12 11 1 10 9 38 27 62 39 23
13 42 28 42 34 0 5 3 7 6 3 4 -3 13 1 21 9 8 8 18 12 23 9 4 -3 10 2 14 10 3
8 12 15 21 15 8 0 15 4 15 8 0 5 18 17 40 27 22 10 37 22 34 27 -3 5 2 8 12 6
12 -2 18 2 16 11 -2 8 3 11 13 8 8 -4 15 -3 15 2 0 5 11 12 25 15 14 4 23 11
20 16 -3 6 1 7 9 4 9 -3 13 -10 10 -15z m-4178 -958 c-3 -4 -1 -13 5 -21 7
-13 9 -13 9 -1 0 11 4 11 18 -2 10 -10 22 -14 25 -10 4 3 7 2 7 -3 0 -5 21
-21 47 -34 26 -14 53 -30 60 -37 7 -6 22 -15 33 -18 11 -3 20 -11 20 -16 0 -6
4 -8 9 -4 5 3 16 -2 24 -10 9 -8 21 -15 27 -15 6 0 8 -5 5 -10 -4 -6 -3 -10 2
-9 24 4 53 -2 48 -11 -3 -5 -1 -10 5 -10 6 0 18 -7 27 -15 8 -8 19 -13 24 -10
5 4 9 1 9 -6 0 -7 3 -10 6 -6 6 5 15 0 48 -30 8 -7 16 -9 20 -6 3 4 6 -2 6
-13 0 -14 2 -16 9 -5 7 10 12 8 25 -10 9 -13 16 -18 16 -11 0 11 3 11 14 0 23
-22 56 -43 69 -43 7 -1 11 -5 10 -11 -1 -5 8 -11 20 -11 12 -1 23 -7 25 -13 2
-5 10 -10 18 -10 9 0 12 -5 9 -10 -4 -6 -3 -10 2 -9 21 4 41 -3 59 -19 10 -10
34 -25 52 -32 17 -8 32 -18 32 -22 0 -5 7 -8 15 -8 8 0 15 -4 15 -10 0 -5 6
-10 14 -10 8 0 22 -7 31 -16 9 -9 18 -14 21 -11 3 3 13 -1 22 -9 36 -32 94
-64 104 -58 7 4 8 2 4 -4 -4 -7 3 -14 19 -18 14 -3 25 -10 25 -16 0 -5 5 -6
10 -3 6 3 13 -1 16 -9 3 -9 15 -16 25 -16 10 0 19 -4 19 -8 0 -5 16 -14 35
-22 19 -8 35 -17 35 -22 0 -4 7 -8 15 -8 8 0 15 -3 15 -8 0 -4 15 -13 33 -21
17 -8 34 -18 37 -22 3 -4 12 -9 20 -11 8 -2 23 -11 34 -20 11 -10 26 -18 33
-18 8 0 11 -5 7 -12 -5 -8 -2 -9 9 -5 12 4 17 1 17 -10 0 -13 2 -14 17 -2 9 8
14 9 10 2 -4 -7 5 -16 23 -25 16 -7 30 -17 30 -22 0 -4 6 -6 13 -3 8 3 20 -3
27 -13 7 -10 20 -16 28 -12 10 3 13 1 8 -6 -4 -7 -1 -12 8 -12 9 0 16 -4 16
-10 0 -5 9 -10 20 -10 11 0 23 -7 26 -15 4 -8 10 -12 15 -9 5 3 9 0 9 -6 0 -6
5 -8 10 -5 6 3 10 1 10 -5 0 -6 4 -9 9 -6 5 4 11 2 13 -3 1 -5 10 -11 18 -13
8 -2 22 -11 31 -20 9 -10 18 -15 21 -13 3 3 11 -1 18 -10 7 -8 19 -15 26 -15
8 0 14 -5 14 -10 0 -6 6 -9 13 -8 6 2 11 -2 10 -9 -2 -7 4 -10 12 -7 8 4 17
-1 21 -10 3 -9 11 -13 17 -9 5 3 15 0 21 -8 16 -20 51 -47 42 -31 -4 6 -2 12
3 12 6 0 11 -8 11 -17 0 -9 3 -13 7 -10 3 4 22 -5 41 -20 20 -15 32 -20 28
-12 -5 9 -3 9 6 -2 7 -8 28 -22 46 -30 17 -7 32 -17 32 -21 0 -5 9 -8 21 -8
11 0 17 -4 14 -10 -3 -5 -1 -11 4 -11 6 -1 16 -2 21 -3 16 -2 29 -27 22 -44
-4 -11 -2 -13 9 -7 12 8 12 6 0 -8 -11 -14 -11 -17 0 -17 10 0 10 -3 1 -12 -9
-9 -9 -15 1 -27 10 -12 9 -13 -1 -7 -16 10 -13 -25 3 -36 6 -5 5 -8 -4 -8 -11
0 -11 -3 -1 -15 9 -11 9 -15 1 -15 -8 0 -9 -5 -2 -17 6 -11 6 -24 0 -35 -5 -9
-5 -19 -1 -22 10 -6 8 -68 -2 -85 -4 -6 -2 -18 4 -26 10 -12 10 -15 -1 -15
-11 0 -11 -2 1 -10 12 -8 12 -10 1 -10 -11 0 -11 -3 0 -17 11 -13 11 -15 1 -9
-16 10 -13 -25 3 -36 6 -5 5 -8 -2 -8 -7 0 -13 -5 -13 -11 0 -6 6 -7 13 -2 6
4 4 -6 -7 -21 -10 -16 -13 -26 -8 -22 15 9 22 -7 12 -24 -5 -9 -4 -20 3 -29
10 -12 9 -13 -1 -7 -16 10 -13 -25 3 -36 6 -5 5 -8 -4 -8 -11 0 -11 -3 -1 -15
9 -11 9 -15 1 -15 -8 0 -9 -5 -1 -19 7 -14 7 -22 -1 -27 -8 -4 -7 -9 2 -15 8
-5 9 -9 3 -9 -9 0 -12 -38 -4 -47 6 -8 5 -30 -2 -45 -5 -10 -4 -19 2 -23 8 -5
7 -11 -1 -21 -9 -11 -8 -14 2 -14 9 0 10 -3 4 -8 -11 -8 -13 -32 -3 -47 4 -6
4 -16 0 -22 -8 -13 -72 12 -72 28 0 5 -9 9 -20 9 -11 0 -20 4 -20 9 0 5 -13
14 -30 21 -16 7 -30 16 -30 20 0 5 -14 11 -30 15 -17 4 -41 17 -54 30 -13 13
-27 21 -30 18 -3 -4 -6 -1 -6 6 0 7 -4 10 -9 7 -5 -4 -11 -2 -13 3 -1 5 -10
11 -18 13 -8 2 -23 11 -34 21 -11 9 -26 17 -33 17 -7 0 -13 5 -13 10 0 6 -7
10 -15 10 -9 0 -18 7 -21 15 -4 8 -10 13 -14 10 -4 -3 -19 4 -32 15 -14 11
-28 17 -31 13 -4 -3 -9 2 -13 11 -3 9 -15 16 -25 16 -10 0 -19 5 -19 10 0 6
-7 10 -15 10 -8 0 -15 5 -15 10 0 6 -8 10 -18 10 -10 0 -24 9 -32 19 -7 11
-17 18 -22 15 -4 -3 -8 0 -8 5 0 6 -3 10 -7 9 -7 -3 -82 39 -93 51 -3 4 -12 7
-20 9 -8 2 -19 10 -23 18 -4 8 -17 14 -27 14 -11 0 -20 5 -20 11 0 5 -5 7 -10
4 -6 -3 -13 0 -15 8 -3 7 -21 20 -40 27 -19 8 -35 17 -35 22 0 4 -9 8 -21 8
-11 0 -18 4 -15 8 2 4 -4 14 -16 21 -13 8 -18 9 -13 1 4 -7 -16 4 -44 24 -28
20 -58 36 -66 36 -8 0 -15 7 -15 15 0 8 -5 15 -11 15 -5 0 -7 -6 -4 -12 4 -7
-2 -3 -13 9 -11 12 -22 19 -26 16 -3 -4 -6 -1 -6 5 0 7 -7 12 -15 12 -8 0 -15
5 -15 11 0 5 -4 8 -8 5 -5 -3 -18 4 -30 14 -12 11 -28 20 -37 20 -8 0 -15 5
-15 10 0 6 -7 10 -15 10 -8 0 -15 5 -15 10 0 6 -6 10 -14 10 -7 0 -19 7 -26
15 -7 9 -18 14 -24 12 -5 -2 -20 7 -32 20 -11 12 -24 20 -27 17 -3 -4 -13 1
-22 10 -9 9 -23 16 -31 16 -8 0 -14 7 -14 15 0 8 -5 15 -11 15 -5 0 -7 -6 -3
-12 4 -7 -4 -4 -17 8 -37 32 -95 64 -102 57 -4 -3 -7 2 -7 12 0 10 -3 16 -6
12 -4 -3 -13 1 -21 9 -8 8 -19 12 -24 8 -5 -3 -12 2 -15 10 -3 9 -14 16 -24
16 -10 0 -23 7 -30 15 -7 8 -17 12 -23 8 -5 -3 -7 -1 -4 4 4 6 -10 18 -33 27
-22 9 -40 21 -40 27 0 6 -6 9 -13 6 -7 -3 -19 4 -25 14 -7 10 -21 19 -32 19
-11 0 -20 3 -20 8 0 4 -14 13 -30 20 -17 8 -27 18 -23 25 4 7 0 8 -12 4 -11
-5 -24 0 -35 14 -10 11 -20 20 -22 20 -16 -2 -47 13 -42 21 3 5 -2 8 -12 6
-11 -2 -18 2 -17 10 2 6 -6 12 -18 12 -11 0 -18 4 -15 8 2 4 -5 9 -17 9 -12 1
-23 7 -25 13 -2 5 -8 10 -13 10 -34 0 -57 63 -36 97 4 6 3 14 -3 18 -5 3 -10
11 -10 16 0 6 4 8 8 5 5 -3 9 1 9 9 0 8 -3 12 -7 10 -9 -6 -6 68 3 82 4 7 2
15 -4 19 -8 5 -9 3 -4 -6 6 -9 4 -11 -5 -5 -10 6 -9 11 5 22 11 7 14 13 9 13
-11 0 -12 60 -1 77 4 6 3 14 -2 17 -10 7 -8 86 3 104 3 6 1 14 -5 18 -8 5 -9
3 -4 -6 6 -9 4 -11 -5 -5 -10 6 -9 11 5 22 11 7 14 13 9 13 -11 0 -12 60 -1
77 4 6 3 14 -2 17 -10 7 -8 92 2 103 4 3 7 11 7 17 0 6 -4 4 -10 -4 -6 -10 -9
-6 -8 18 1 20 5 29 12 25 6 -4 6 0 -1 8 -10 12 -10 18 -1 27 7 7 8 12 2 12
-12 0 -12 99 0 119 6 9 5 12 -1 8 -5 -3 -10 0 -10 6 0 9 10 12 29 9 15 -2 26
-7 24 -11z m5037 -8 c-7 -3 -13 -9 -13 -14 0 -6 6 -7 13 -3 9 6 9 4 -1 -8 -10
-13 -10 -17 0 -21 8 -4 9 -8 3 -14 -5 -4 -10 -15 -10 -23 0 -8 5 -18 10 -22 6
-5 4 -12 -5 -19 -12 -9 -13 -12 -1 -16 11 -5 11 -7 0 -14 -12 -7 -11 -9 1 -9
13 0 13 -1 0 -10 -13 -9 -13 -10 0 -10 13 0 13 -1 0 -10 -13 -9 -13 -10 0 -10
13 0 13 -1 0 -10 -13 -9 -13 -10 0 -10 13 0 13 -1 0 -10 -13 -9 -13 -10 0 -10
13 0 13 -1 0 -10 -13 -9 -13 -10 0 -10 13 0 13 -1 0 -10 -13 -9 -13 -10 0 -10
13 0 13 -1 0 -10 -13 -9 -13 -10 0 -10 13 0 13 -1 0 -10 -13 -9 -13 -10 0 -10
13 0 13 -1 0 -10 -13 -9 -13 -10 0 -10 13 0 13 -1 0 -10 -13 -9 -13 -10 0 -10
13 0 13 -1 0 -10 -13 -9 -13 -10 0 -10 13 0 13 -1 0 -10 -13 -9 -13 -10 0 -10
13 0 13 -1 0 -10 -13 -9 -13 -10 0 -10 13 0 13 -1 0 -10 -10 -6 -11 -10 -2
-10 6 0 12 -5 12 -11 0 -5 -5 -7 -10 -4 -13 8 -8 -17 5 -27 7 -5 7 -10 0 -15
-5 -5 -10 -15 -10 -23 0 -8 5 -19 10 -23 6 -6 6 -10 -2 -14 -7 -2 -13 -9 -13
-14 0 -6 6 -7 13 -3 9 6 9 4 -1 -8 -10 -13 -10 -17 0 -21 8 -4 9 -8 3 -14 -5
-4 -10 -15 -10 -23 0 -8 5 -19 10 -23 6 -6 6 -10 -2 -14 -7 -2 -13 -9 -13 -14
0 -6 6 -7 13 -3 9 6 9 4 -1 -8 -10 -13 -10 -17 0 -22 10 -5 10 -7 1 -12 -8 -4
-9 -13 -3 -30 7 -17 6 -24 -3 -24 -7 0 -8 -3 -2 -8 12 -8 13 -61 2 -79 -5 -8
-4 -13 2 -13 7 0 7 -7 -1 -20 -7 -11 -18 -20 -24 -20 -7 0 -14 -7 -18 -15 -3
-8 -15 -15 -26 -15 -11 0 -20 -3 -20 -7 0 -5 -19 -17 -43 -28 -23 -11 -48 -26
-55 -33 -8 -6 -18 -10 -23 -6 -5 3 -8 0 -7 -8 2 -7 -3 -12 -10 -10 -7 1 -15
-5 -19 -14 -5 -13 -7 -13 -14 -2 -7 10 -9 8 -9 -6 0 -12 -5 -16 -15 -12 -9 3
-15 0 -15 -10 0 -8 -5 -12 -11 -9 -5 4 -18 -1 -27 -12 -9 -10 -24 -19 -32 -21
-8 -2 -20 -10 -26 -17 -6 -8 -14 -12 -17 -8 -4 3 -7 1 -7 -5 0 -6 -9 -9 -20
-7 -11 2 -19 1 -16 -3 2 -4 -2 -13 -10 -20 -8 -7 -14 -10 -14 -6 0 3 -6 1 -13
-5 -8 -6 -17 -8 -20 -4 -4 3 -7 -1 -7 -10 0 -15 -10 -19 -36 -16 -3 0 -15 -10
-28 -24 -12 -13 -27 -22 -33 -20 -6 2 -17 -4 -25 -14 -7 -10 -17 -19 -23 -20
-23 -4 -84 -41 -78 -47 4 -3 1 -7 -5 -7 -7 -1 -17 -2 -22 -3 -6 0 -15 -8 -20
-16 -5 -8 -10 -11 -10 -6 0 5 -8 2 -18 -7 -10 -10 -22 -14 -25 -10 -4 3 -7 1
-7 -6 0 -7 -13 -17 -30 -22 -16 -6 -30 -15 -30 -21 0 -5 -4 -7 -9 -4 -5 3 -12
-1 -15 -9 -3 -8 -9 -15 -13 -14 -19 3 -53 -15 -53 -27 0 -8 -6 -11 -15 -8 -8
4 -17 -1 -21 -10 -3 -9 -10 -13 -15 -10 -5 3 -12 -2 -15 -10 -3 -9 -10 -14
-14 -11 -5 3 -15 -1 -23 -9 -8 -8 -17 -12 -21 -9 -3 4 -6 1 -6 -5 0 -7 -7 -12
-15 -12 -8 0 -15 -5 -15 -12 0 -6 -3 -8 -7 -5 -3 4 -12 -1 -20 -11 -8 -9 -11
-11 -8 -4 6 11 3 11 -14 0 -12 -7 -21 -16 -21 -20 0 -5 -5 -8 -11 -8 -7 0 -18
-8 -26 -17 -8 -10 -12 -12 -8 -5 10 19 -9 14 -25 -7 -7 -11 -17 -18 -22 -15
-4 3 -8 0 -8 -6 0 -6 -4 -8 -10 -5 -5 3 -10 3 -10 -2 0 -11 -58 -43 -77 -43
-9 0 -13 -3 -10 -7 4 -3 -2 -11 -12 -17 -11 -6 -36 -21 -56 -34 -20 -12 -33
-16 -30 -10 4 7 0 5 -8 -4 -8 -10 -19 -18 -26 -18 -6 0 -11 -4 -11 -10 0 -5
-7 -10 -15 -10 -16 0 -74 -37 -87 -55 -4 -5 -8 -6 -8 -1 0 5 -6 3 -13 -3 -8
-6 -17 -7 -21 -3 -4 4 -6 3 -4 -3 1 -5 -1 -11 -6 -12 -5 0 -13 -8 -18 -17 -5
-9 -13 -14 -17 -11 -5 2 -14 -2 -21 -10 -7 -8 -19 -15 -26 -15 -8 0 -14 -5
-14 -11 0 -5 -4 -7 -10 -4 -5 3 -10 1 -10 -5 0 -6 -4 -8 -10 -5 -5 3 -10 2
-10 -2 0 -5 -17 -17 -37 -28 -21 -11 -41 -24 -44 -29 -4 -5 -14 -6 -22 -3 -12
4 -14 2 -10 -10 4 -10 2 -14 -4 -10 -6 4 -16 0 -23 -8 -7 -8 -17 -15 -23 -15
-5 0 -16 -8 -24 -17 -8 -10 -11 -12 -8 -5 6 11 3 11 -14 0 -12 -7 -21 -16 -21
-20 0 -5 -6 -8 -13 -8 -7 0 -23 -9 -34 -19 -12 -11 -24 -17 -27 -14 -3 4 -6 1
-6 -5 0 -6 -7 -9 -15 -6 -8 4 -15 1 -15 -5 0 -6 -7 -11 -15 -11 -8 0 -15 -4
-15 -10 0 -5 -7 -10 -15 -10 -8 0 -15 -3 -15 -8 0 -4 -9 -13 -21 -20 -17 -11
-20 -11 -14 0 4 8 1 7 -7 -2 -7 -8 -18 -16 -23 -17 -12 -2 -13 37 -1 55 4 7 2
12 -6 12 -9 0 -9 3 2 10 11 7 11 10 2 10 -9 0 -10 5 -3 17 6 11 6 24 0 35 -7
13 -6 18 3 18 9 0 9 3 -2 10 -13 9 -13 10 0 10 9 0 11 3 5 8 -13 9 -18 35 -5
27 5 -3 10 -2 10 4 0 5 -5 13 -10 16 -7 4 -7 12 0 25 7 13 7 21 -1 26 -8 4 -7
9 2 15 12 7 12 9 0 9 -10 0 -11 3 -2 14 9 11 9 16 0 21 -8 6 -7 10 2 16 11 7
11 9 -1 9 -13 0 -13 1 0 10 11 7 11 10 2 10 -8 0 -10 5 -5 13 12 19 12 36 1
43 -6 4 -5 10 3 15 12 7 12 9 0 9 -10 0 -11 3 -2 14 9 11 9 16 0 21 -8 6 -7
10 2 16 10 6 11 9 2 9 -7 0 -13 5 -13 11 0 5 6 7 13 3 8 -5 8 -2 -2 9 -10 13
-10 17 -1 17 9 0 9 4 -1 17 -12 15 -12 16 1 8 13 -8 13 -7 1 8 -11 14 -11 17
0 18 11 0 11 2 1 6 -9 4 -10 8 -2 18 8 10 8 15 -1 20 -8 6 -7 10 2 16 11 7 11
9 -1 9 -13 0 -13 1 0 10 11 7 11 10 2 10 -8 0 -10 5 -5 13 12 19 12 36 1 43
-6 4 -5 10 3 15 12 7 12 9 0 9 -10 0 -11 3 -2 14 9 11 9 16 0 21 -8 6 -7 10 2
16 10 6 11 9 2 9 -7 0 -13 5 -13 11 0 5 6 7 13 3 9 -6 9 -4 -1 8 -10 13 -10
17 0 21 10 4 10 7 -1 15 -9 6 -10 12 -3 16 6 4 9 13 6 21 -3 8 1 22 10 30 9 9
16 13 16 8 0 -4 4 -3 8 4 4 6 13 13 21 15 7 2 24 13 37 26 13 13 28 21 33 18
5 -3 14 1 21 9 7 8 19 15 26 15 8 0 14 5 14 10 0 6 6 10 14 10 7 0 19 7 26 15
7 8 16 12 21 9 5 -3 9 0 9 6 0 6 5 8 10 5 6 -3 13 1 16 9 3 9 15 16 25 16 10
0 19 4 19 9 0 5 18 16 40 25 22 9 40 20 40 24 0 5 16 14 35 22 19 8 35 18 35
23 0 5 7 6 16 3 8 -3 13 -2 10 3 -6 9 22 26 37 23 4 -1 7 3 7 10 0 6 3 9 6 5
3 -3 15 3 27 13 11 11 24 17 29 14 4 -3 8 -1 8 5 0 6 17 18 38 27 35 17 111
62 122 74 3 3 12 6 20 8 8 2 17 8 18 13 2 5 10 9 18 9 8 0 14 5 14 11 0 5 4 8
8 5 5 -3 19 4 30 15 12 11 22 15 22 9 0 -7 5 -6 14 2 8 7 12 16 9 21 -2 4 4 7
14 7 10 0 29 9 43 20 14 11 31 20 38 20 6 0 12 5 12 11 0 5 5 7 10 4 6 -3 13
1 16 9 3 9 10 13 15 10 5 -3 9 0 9 6 0 6 4 9 9 6 4 -3 16 3 26 14 10 11 22 17
26 14 5 -3 9 0 9 6 0 6 5 8 10 5 6 -3 10 -1 10 4 0 6 6 11 14 11 7 0 19 7 26
15 7 8 16 13 20 10 4 -3 11 2 14 11 3 8 10 13 15 9 6 -3 14 3 20 12 6 10 11
14 11 10 0 -5 14 1 30 13 17 12 30 19 30 15 0 -3 10 3 22 15 20 19 33 24 51
21 4 0 7 3 7 8 0 5 9 13 20 16 11 4 17 11 14 17 -4 6 -3 9 2 6 13 -8 75 27 66
37 -4 5 -2 5 4 2 6 -3 27 5 46 18 20 13 38 21 42 18 3 -3 8 2 12 11 3 9 15 16
25 16 10 0 19 4 19 10 0 5 11 12 25 16 14 3 22 11 18 17 -4 6 0 8 10 4 9 -3
20 -1 24 6 5 7 17 19 27 27 18 13 19 13 11 0 -5 -10 -1 -9 13 3 11 11 25 16
31 12 7 -4 8 0 4 11 -4 11 -3 15 4 11 6 -4 19 0 27 9 9 8 16 13 16 9 0 -3 9 3
21 14 12 11 27 17 35 14 8 -3 14 1 14 11 0 9 3 15 8 14 13 -3 62 25 57 33 -3
4 3 6 12 5 18 -3 44 15 37 26 -2 3 6 4 18 0 13 -3 19 -1 15 5 -4 6 14 18 38
29 25 10 45 22 45 28 0 5 3 6 7 3 3 -4 12 1 19 11 11 14 14 14 14 2 1 -9 5 -5
11 8 5 13 13 20 19 17 5 -3 10 -2 10 2 0 15 54 31 65 20 7 -6 6 -11 -2 -14z
m-8 -1393 c-3 -5 -2 -10 4 -10 11 0 9 -19 -3 -39 -5 -8 -3 -17 5 -23 11 -7 11
-11 2 -15 -7 -2 -13 -9 -13 -14 0 -6 6 -7 13 -3 9 6 9 4 -1 -8 -10 -13 -10
-17 0 -21 8 -4 9 -8 3 -14 -5 -4 -10 -15 -10 -23 0 -8 5 -19 10 -23 6 -6 6
-10 -2 -14 -7 -2 -13 -9 -13 -14 0 -6 6 -7 13 -3 9 6 9 4 -1 -8 -10 -13 -10
-17 0 -21 8 -4 9 -8 3 -14 -5 -4 -10 -15 -10 -23 0 -8 5 -18 10 -22 6 -5 4
-12 -5 -18 -13 -9 -13 -10 0 -10 9 0 11 -3 5 -8 -5 -4 -10 -14 -10 -22 0 -8 5
-19 10 -23 6 -6 6 -10 -2 -14 -7 -2 -13 -9 -13 -14 0 -6 6 -7 13 -3 9 6 9 4
-1 -8 -10 -13 -10 -17 0 -21 8 -4 9 -8 3 -14 -5 -4 -10 -15 -10 -23 0 -8 5
-19 10 -23 6 -6 6 -10 -2 -14 -7 -2 -13 -9 -13 -14 0 -6 6 -7 13 -3 9 6 9 4
-1 -8 -10 -13 -10 -17 0 -21 8 -4 9 -8 3 -14 -5 -4 -10 -15 -10 -23 0 -8 5
-19 10 -23 6 -6 6 -10 -2 -14 -7 -2 -13 -9 -13 -14 0 -6 6 -7 13 -3 9 6 9 4
-1 -8 -10 -13 -10 -17 0 -21 8 -4 9 -8 3 -14 -5 -4 -10 -15 -10 -23 0 -8 5
-19 10 -23 6 -6 6 -10 -2 -14 -7 -2 -13 -9 -13 -14 0 -6 6 -7 13 -3 9 6 9 4
-1 -8 -10 -13 -10 -17 0 -21 8 -4 9 -8 3 -14 -5 -4 -10 -15 -10 -23 0 -8 5
-19 10 -23 6 -6 6 -10 -2 -14 -7 -2 -13 -9 -13 -14 0 -6 6 -7 13 -3 9 6 9 4
-1 -8 -10 -13 -10 -17 0 -21 8 -4 9 -8 3 -14 -5 -4 -10 -15 -10 -23 0 -8 5
-19 10 -23 6 -6 6 -10 -2 -14 -7 -2 -13 -9 -13 -14 0 -6 6 -7 13 -3 9 6 9 4
-1 -8 -10 -13 -10 -17 0 -21 8 -4 9 -8 3 -14 -5 -4 -10 -15 -10 -23 0 -8 5
-19 10 -23 6 -6 6 -10 -2 -14 -7 -2 -13 -9 -13 -14 0 -6 6 -7 13 -3 9 6 9 4
-1 -8 -10 -13 -10 -17 0 -21 8 -4 9 -8 3 -14 -5 -4 -10 -15 -10 -23 0 -8 5
-18 10 -22 6 -5 4 -12 -5 -18 -13 -9 -13 -11 0 -20 13 -9 13 -10 0 -10 -13 0
-13 -1 0 -10 13 -9 13 -10 0 -10 -13 0 -13 -1 0 -10 13 -9 13 -10 0 -10 -13 0
-13 -2 -1 -9 12 -8 12 -12 2 -25 -11 -13 -11 -16 0 -17 12 0 12 -1 0 -6 -11
-5 -11 -7 0 -15 11 -7 11 -11 1 -15 -6 -2 -9 -9 -6 -15 3 -5 -3 -12 -15 -15
-11 -3 -18 -10 -14 -16 3 -5 1 -7 -5 -3 -6 3 -17 -1 -26 -10 -9 -8 -20 -12
-26 -9 -6 4 -9 1 -8 -7 2 -8 -6 -13 -19 -12 -13 1 -20 -2 -17 -7 6 -10 -31
-31 -40 -22 -3 3 -6 1 -6 -5 0 -6 -9 -14 -20 -17 -11 -4 -18 -10 -15 -15 3 -5
-4 -7 -15 -5 -11 2 -18 0 -15 -5 3 -5 -6 -12 -20 -16 -13 -3 -22 -10 -19 -15
3 -5 2 -8 -3 -7 -17 4 -53 -14 -47 -24 5 -7 1 -9 -9 -5 -10 4 -20 0 -25 -9 -5
-9 -13 -16 -18 -16 -17 -1 -53 -21 -49 -27 2 -4 -4 -7 -14 -7 -15 0 -17 11
-18 68 -1 46 2 66 9 61 7 -4 8 -1 2 8 -13 21 -13 309 0 303 6 -3 2 2 -8 10
-11 9 -16 16 -10 16 5 0 8 40 8 92 -1 60 2 96 10 100 7 5 7 8 0 8 -6 0 -11 25
-12 63 -1 34 -3 71 -5 82 -3 26 -32 78 -51 94 -9 7 -13 17 -10 22 3 5 -2 6
-10 3 -9 -3 -16 -1 -16 5 0 6 -7 8 -15 5 -8 -4 -15 -1 -15 6 0 7 -7 10 -16 6
-8 -3 -12 -2 -9 4 9 14 -8 12 -24 -2 -11 -11 -12 -10 -6 1 6 11 2 13 -19 7
-21 -5 -26 -4 -20 6 6 10 5 11 -8 1 -8 -7 -18 -10 -21 -6 -4 3 -7 1 -7 -6 0
-7 -4 -9 -10 -6 -5 3 -10 1 -10 -4 0 -6 -9 -11 -20 -11 -11 0 -20 -5 -20 -11
0 -5 -4 -8 -9 -4 -5 3 -12 1 -16 -5 -4 -6 -11 -7 -17 -4 -7 4 -8 2 -4 -4 4 -7
-3 -14 -19 -18 -14 -3 -25 -10 -25 -15 0 -5 -7 -9 -15 -9 -9 0 -18 -6 -21 -14
-3 -8 -14 -13 -25 -11 -11 2 -17 0 -14 -4 2 -5 -16 -19 -40 -32 -25 -13 -45
-28 -45 -32 0 -5 -4 -5 -10 -2 -5 3 -10 1 -10 -6 0 -7 -3 -9 -7 -6 -3 4 -16
-2 -27 -12 -12 -11 -25 -21 -31 -22 -5 -1 -28 -14 -50 -28 -22 -14 -50 -31
-62 -37 -62 -34 -89 -50 -101 -61 -7 -7 -20 -13 -28 -13 -8 0 -14 -4 -14 -10
0 -5 -7 -10 -15 -10 -8 0 -15 -5 -15 -11 0 -5 -4 -8 -9 -5 -5 3 -11 -1 -15 -9
-3 -8 -15 -15 -26 -15 -11 0 -20 -4 -20 -10 0 -5 -7 -10 -15 -10 -9 0 -18 -7
-21 -15 -4 -8 -10 -13 -14 -10 -13 8 -73 -89 -62 -99 3 -3 1 -6 -4 -6 -6 0 -9
-29 -8 -65 1 -42 -2 -62 -9 -58 -6 4 -7 1 -2 -7 12 -20 15 -79 4 -86 -5 -3 -6
-11 -2 -17 12 -19 12 -138 0 -130 -6 4 -7 1 -2 -8 13 -20 14 -72 2 -86 -6 -9
-6 -13 1 -13 6 0 9 -20 7 -50 -3 -37 0 -49 8 -44 9 5 9 4 0 -6 -6 -7 -9 -19
-6 -28 5 -11 3 -13 -7 -7 -9 6 -11 4 -5 -5 12 -20 15 -79 4 -86 -5 -3 -6 -11
-2 -17 12 -19 12 -138 0 -130 -6 4 -7 1 -2 -8 12 -18 14 -70 4 -90 -5 -9 -5
-19 -1 -23 3 -4 7 -25 8 -47 1 -33 -4 -43 -26 -59 -16 -11 -33 -20 -39 -20 -6
0 -11 -4 -11 -10 0 -5 -7 -10 -15 -10 -9 0 -18 -7 -21 -15 -4 -8 -10 -15 -16
-15 -5 0 -6 6 -3 13 4 6 -3 1 -14 -12 -12 -13 -21 -20 -21 -16 0 3 -15 -4 -32
-17 -18 -12 -39 -21 -46 -20 -8 2 -12 -1 -9 -5 3 -5 -11 -18 -31 -28 -20 -11
-40 -24 -43 -28 -3 -5 -10 -9 -15 -9 -18 -1 -34 -10 -30 -17 3 -4 -4 -7 -14
-8 -18 -2 -29 -8 -65 -41 -8 -7 -15 -11 -15 -7 0 3 -12 -2 -27 -12 -16 -10
-40 -25 -55 -33 -16 -7 -28 -17 -28 -22 0 -5 -4 -6 -10 -3 -5 3 -10 1 -10 -5
0 -7 -7 -10 -15 -6 -8 3 -14 0 -12 -7 1 -7 -6 -11 -16 -9 -9 2 -20 -4 -23 -13
-3 -8 -12 -15 -20 -15 -8 0 -14 -5 -14 -11 0 -5 -4 -8 -9 -5 -5 4 -11 1 -13
-6 -3 -7 -11 -9 -24 -4 -13 6 -15 10 -6 13 10 4 10 8 1 19 -9 11 -8 14 2 14
11 0 11 2 -1 10 -13 9 -13 10 0 10 9 0 11 3 5 8 -13 9 -18 35 -5 27 5 -3 10
-2 10 4 0 5 -4 12 -10 16 -6 3 -6 15 0 30 6 16 6 27 -1 31 -7 4 -7 10 0 18 6
7 6 17 1 26 -5 8 -5 21 1 32 7 13 6 18 -3 18 -9 0 -9 3 2 10 10 6 11 10 3 10
-7 0 -13 5 -13 11 0 5 4 8 8 5 4 -2 8 4 8 14 0 10 -4 16 -9 13 -5 -3 -4 3 2
14 7 14 7 23 -1 31 -9 9 -9 12 1 12 10 0 11 3 2 14 -9 10 -9 16 -1 21 8 5 8
11 1 19 -6 7 -8 16 -4 20 11 11 10 46 -1 46 -6 0 -4 5 4 10 12 8 12 10 1 10
-11 0 -11 3 -1 15 10 12 10 15 -1 15 -11 0 -11 2 1 10 13 9 13 10 0 10 -13 0
-13 1 0 10 10 6 11 10 3 10 -9 0 -10 7 -4 23 5 13 5 30 1 38 -6 8 -4 16 3 21
9 6 8 8 -2 8 -11 0 -11 3 0 17 12 14 12 15 1 9 -11 -7 -12 -4 -3 13 9 16 9 21
-1 21 -9 0 -9 3 2 10 10 6 11 10 3 10 -7 0 -13 5 -13 11 0 5 4 8 8 5 4 -2 8 4
8 14 0 10 -4 16 -9 13 -5 -3 -4 3 2 14 7 14 7 23 -1 31 -9 9 -9 12 1 12 10 0
11 3 2 14 -9 10 -9 16 -1 21 8 5 8 11 1 19 -6 7 -8 16 -4 20 11 11 10 46 -1
46 -6 0 -4 5 4 10 12 8 12 10 1 10 -11 0 -11 3 -1 15 10 12 10 15 -1 15 -11 0
-11 2 1 10 13 9 13 10 0 10 -13 0 -13 1 0 10 10 6 11 10 3 10 -9 0 -10 7 -4
23 5 13 5 30 1 38 -6 8 -4 16 3 21 9 6 8 8 -2 8 -11 0 -11 3 0 17 12 14 12 15
1 9 -11 -7 -12 -4 -3 13 9 16 9 21 -1 21 -9 0 -9 3 2 10 10 6 11 10 3 10 -7 0
-13 5 -13 11 0 5 4 8 8 5 4 -2 8 4 8 14 0 10 -4 16 -9 13 -5 -3 -4 3 1 14 6
11 7 25 2 33 -6 9 -5 17 3 22 9 6 9 8 0 8 -7 0 -13 5 -13 11 0 5 6 7 13 3 9
-6 9 -4 -1 8 -10 13 -8 18 13 32 14 9 25 13 25 9 0 -4 7 2 15 13 8 10 15 15
15 11 0 -7 11 0 45 31 8 7 15 11 15 7 0 -3 13 3 29 14 16 12 34 21 40 21 6 0
11 5 11 10 0 6 9 10 20 10 11 0 23 7 26 15 4 8 12 15 20 15 8 0 14 5 14 11 0
5 5 7 10 4 6 -3 10 -1 10 4 0 6 7 11 16 11 8 0 21 6 28 13 19 17 55 42 64 43
14 1 72 39 72 48 0 5 7 3 16 -4 8 -8 14 -9 13 -4 -3 20 2 35 10 29 5 -3 13 0
16 5 7 11 41 27 58 28 5 0 15 9 23 19 7 10 14 14 14 9 0 -5 8 0 18 10 9 10 23
20 31 22 8 2 27 12 43 23 15 11 28 17 28 12 0 -4 5 0 11 10 5 9 17 17 24 17 8
0 15 5 15 11 0 5 4 8 9 5 5 -3 14 1 21 9 7 8 16 13 20 10 4 -3 11 2 14 11 3 8
10 12 16 9 5 -3 10 -1 10 5 0 6 5 8 10 5 6 -3 10 -1 10 4 0 6 7 11 15 11 8 0
15 4 15 10 0 5 11 12 25 16 14 3 22 10 19 15 -3 5 4 9 15 9 12 0 21 5 21 11 0
6 9 9 20 6 10 -3 18 -2 17 2 -1 3 2 7 7 8 5 0 13 8 18 17 5 9 13 14 19 11 5
-4 9 1 9 9 0 10 6 13 15 10 8 -4 17 1 21 10 3 9 10 13 15 10 5 -3 9 0 9 6 0 6
4 9 9 6 5 -3 14 1 21 9 7 8 16 13 20 10 4 -3 11 2 14 11 4 9 13 14 21 10 10
-3 15 1 15 11 0 9 3 14 6 10 4 -3 13 1 21 9 8 8 18 12 23 9 4 -3 11 2 14 11 3
8 10 13 15 10 5 -3 12 2 15 11 6 15 8 15 16 3 8 -13 10 -12 10 3 0 10 5 15 10
12 6 -3 13 1 16 9 3 9 10 14 14 11 5 -3 12 1 17 9 8 14 12 16 34 16 5 0 7 5 3
12 -4 6 -3 8 4 4 6 -3 13 -2 17 4 4 6 10 8 15 5 4 -3 10 2 14 10 3 8 12 15 21
15 8 0 15 5 15 11 0 5 4 8 9 5 5 -3 14 1 21 9 7 8 19 15 26 15 8 0 14 5 14 11
0 5 4 8 9 5 5 -4 11 -2 13 3 1 5 10 11 18 13 8 2 23 12 33 22 9 10 17 16 17
12 0 -4 13 2 29 13 16 12 34 21 40 21 6 0 11 4 11 10 0 5 11 12 25 16 14 3 25
10 25 16 0 5 5 6 10 3 6 -3 10 -2 10 3 0 4 16 16 35 25 19 9 35 21 35 26 0 6
9 8 20 6 11 -2 18 0 16 4 -3 4 17 18 44 32 27 13 50 27 50 32 0 4 7 7 15 7 8
0 15 5 15 12 0 6 3 9 6 6 3 -4 22 5 41 18 20 13 41 24 47 24 6 0 17 9 24 20 7
11 21 20 32 20 11 0 20 3 20 8 0 6 24 21 48 31 2 0 0 -3 -3 -9z m-860 -1322
c-2 -10 2 -18 8 -18 8 0 8 -3 2 -8 -11 -8 -13 -37 -3 -48 4 -3 4 -14 -1 -23
-10 -20 -8 -82 2 -98 5 -7 4 -13 -2 -13 -10 0 -9 -55 2 -66 4 -4 2 -13 -4 -20
-7 -8 -7 -14 1 -19 6 -3 7 -11 4 -17 -11 -18 -13 -78 -3 -84 5 -3 6 -10 3 -16
-12 -19 -12 -68 0 -68 7 0 7 -3 1 -8 -12 -8 -13 -32 -2 -49 4 -6 3 -14 -2 -18
-5 -3 -8 -15 -6 -26 3 -15 -2 -23 -15 -26 -11 -3 -17 -9 -14 -14 5 -8 -18 -14
-39 -10 -5 1 -6 -3 -3 -8 6 -9 -31 -27 -46 -23 -5 1 -8 -3 -8 -9 0 -5 -14 -15
-31 -21 -16 -6 -28 -13 -25 -16 3 -3 -16 -16 -44 -29 -27 -13 -52 -28 -55 -33
-4 -6 -11 -8 -16 -5 -5 4 -9 2 -9 -4 0 -5 -9 -9 -19 -8 -16 1 -17 5 -10 25 12
31 11 35 -3 26 -10 -6 -10 -4 -2 7 6 8 10 24 8 37 -2 14 0 21 6 17 6 -3 7 1 4
9 -3 9 -11 13 -17 9 -6 -4 -7 -1 -1 8 5 8 10 25 11 39 3 20 1 22 -7 10 -5 -8
-10 -10 -10 -4 0 6 3 14 7 18 11 11 14 48 3 41 -7 -4 -7 3 0 20 13 34 13 38
-2 29 -7 -5 -8 -3 -2 7 10 17 15 71 5 65 -4 -3 -7 4 -7 15 0 13 5 18 16 14 11
-5 12 -3 3 6 -6 6 -9 18 -6 27 5 11 3 13 -7 7 -10 -6 -11 -4 -4 6 13 21 16 51
4 44 -6 -3 -7 1 -4 9 3 9 11 13 18 11 6 -3 3 0 -6 7 -15 11 -15 13 -1 23 13
10 13 14 3 20 -9 6 -11 4 -5 -5 5 -9 4 -11 -4 -6 -6 4 -8 13 -4 19 12 20 12
37 0 38 -7 0 -3 4 8 9 11 5 14 9 8 9 -21 1 -15 29 10 42 12 7 24 15 27 18 3 4
16 12 30 19 43 22 71 39 83 51 6 6 19 11 30 11 10 0 15 5 12 10 -5 9 16 15 38
11 5 -1 5 4 1 10 -5 9 -2 10 9 6 10 -4 16 -2 14 5 -1 7 7 14 18 16 11 2 24 11
29 19 11 20 26 -1 21 -29z m-3318 17 c8 -8 19 -13 24 -10 5 4 9 1 9 -4 0 -6 7
-11 15 -11 8 0 15 -4 15 -10 0 -5 7 -10 15 -10 8 0 15 -5 15 -11 0 -5 5 -7 10
-4 6 3 10 1 10 -5 0 -6 5 -8 10 -5 6 3 10 -1 10 -9 0 -9 6 -13 13 -10 7 2 21
-4 31 -15 10 -11 22 -18 26 -16 4 3 13 -2 20 -10 7 -8 18 -15 24 -15 6 0 17
-9 24 -20 7 -12 17 -18 21 -15 17 10 18 -20 2 -39 -9 -11 -10 -16 -3 -12 7 4
12 1 12 -8 0 -10 -6 -13 -17 -10 -16 5 -16 4 0 -6 15 -10 16 -14 5 -28 -7 -9
-8 -13 -2 -9 7 4 15 0 18 -9 3 -9 2 -12 -5 -8 -7 4 -9 -6 -5 -31 4 -26 3 -34
-6 -29 -7 5 -8 3 -3 -6 13 -21 15 -81 2 -73 -6 4 -7 1 -1 -8 4 -8 10 -22 11
-33 3 -16 1 -17 -13 -5 -16 13 -16 12 -4 -8 8 -12 19 -19 25 -15 5 3 4 -2 -3
-11 -8 -9 -11 -25 -7 -37 4 -12 2 -20 -5 -20 -6 0 -8 -5 -5 -10 4 -6 11 -7 17
-4 5 4 2 -6 -8 -22 -19 -27 -19 -28 0 -21 20 8 20 8 0 -14 -10 -12 -13 -19 -6
-15 7 4 12 1 12 -9 0 -10 -5 -13 -12 -9 -7 5 -8 3 -3 -6 14 -22 15 -81 1 -73
-6 4 -6 0 2 -9 10 -13 10 -17 0 -21 -8 -3 -6 -6 6 -6 16 -1 16 -3 -5 -20 -22
-18 -24 -18 -42 0 -10 9 -32 23 -48 29 -16 7 -29 17 -29 22 0 5 -4 6 -10 3 -5
-3 -10 1 -10 9 0 9 -3 15 -7 14 -12 -4 -73 23 -73 32 0 5 -14 13 -31 19 -17 6
-28 14 -25 19 2 4 -5 9 -16 9 -25 2 -40 22 -34 46 2 9 0 17 -5 17 -6 0 -6 7 0
18 5 10 6 24 1 32 -5 8 -5 21 1 31 6 11 5 20 -1 24 -7 4 -6 13 1 27 8 16 8 19
-1 13 -9 -6 -9 -2 -1 14 8 15 9 21 1 21 -6 0 -8 5 -4 12 11 18 12 48 2 54 -5
3 -4 12 3 20 9 11 8 14 -2 14 -12 0 -12 2 0 9 9 6 10 10 2 16 -9 5 -9 10 0 21
6 8 7 14 2 14 -10 0 -9 52 2 69 3 6 1 11 -5 11 -6 0 -8 5 -4 12 10 16 13 48 4
48 -9 0 -6 32 4 48 4 7 2 12 -5 12 -8 0 -8 4 -1 13 6 7 7 18 2 26 -9 16 -2 41
12 41 5 0 16 -7 25 -15z"/>
</g>
</svg>
